<svg version="1.2" xmlns="http://www.w3.org/2000/svg" viewBox="0 0 683 683" width="683" height="683">
	<title>buoy</title>
	<style>
		.s0 { fill: #000000 } 
		.s1 { fill: #ff0000 } 
		.s2 { fill: #dcdfe2 } 
		.s3 { fill: #b20000 } 
		.s4 { fill: #c5a501 } 
	</style>
	<g id="Layer 1">
		<g id="&lt;Group&gt;">
			<g id="&lt;Group&gt;">
				<path id="&lt;Compound Path&gt;" class="s0" d="m314.4 117.4c6.4-8.8 17.7-13.7 28.5-12.7 10.5 0.5 20.2 7.3 25 16.6 2.6 4.5 3.2 9.7 4 14.7 5.5 3.4 11.7 6.1 16.3 10.9 4.8 4.7 7.7 11.3 7.4 18.1-0.3 5.4 0.2 10.8-0.6 16.1-0.6 4.2-3.1 7.7-5.6 11 2.9 24.9 6.7 49.8 9.8 74.7 4.8 35.9 9.5 71.8 14.4 107.7 15.6 6.8 30.7 16 41.7 29.4 8 9.4 12.9 21.7 13 34.1q0.3 19 0.1 38c-0.1 7-1.6 14-4.1 20.6-5.3 14-12.1 27.5-21.5 39.2-21.8 27.6-54.7 46.4-89.7 50.1-20.4 2-41.2-0.6-60.4-7.6-16.6-6.3-31.9-16-44.7-28.3-11.5-10.9-21.3-23.6-27.9-38-2.8-6.1-5.4-12.2-7.7-18.5-4.2-12.1-2.7-25-2.9-37.5 0.5-13.3-1.3-27.4 4.9-39.7 7.9-16.3 23.1-27.8 38.8-36.1 2.4-0.9 1.9-4 2.5-6 9.6-59.4 19.8-118.7 29.8-178 0.4-3.4 1.8-7 0.6-10.4-1.3-4.1-1.8-8.5-1.8-12.8 0.1-5.8-1-11.8 1.4-17.3 4-9.3 13-15.3 22-19.2 0.4-6.9 2.5-13.6 6.7-19.1zm18.9-9.1c-8.3 1.9-15.6 8-19.3 15.7-4.2 8.4-3 18-3.2 27 0 4.3-0.4 9.1 2.5 12.6 5.2 6.5 13.8 9 21.7 9.8 10.1 0.6 21.1-0.6 29.2-7.2 3.4-2.7 4.9-7.1 4.7-11.3-0.1-6.3-0.2-12.5-0.2-18.8-0.1-10.9-6.7-21.6-16.7-26.1-5.8-2.5-12.5-3.1-18.7-1.7zm-43.7 46.3c-2.2 4.3-3.7 9.4-2 14.1 2.6 9.8 11.7 16.2 20.6 20.1 18.2 7.4 39 7.6 57.7 2.1 8.2-2.9 16.5-6.9 22.1-13.8 5.3-6.3 6.3-16 1.9-23.1-4-7.1-11.5-11-18.3-14.8q-0.1 4.3 0.1 8.6c0.3 1 0.9 2.9 1.2 3.9l-1.3-0.3c0 3.4 0.4 7.1-1.1 10.3-2.6 6.5-9.1 10.4-15.6 12.2-12.3 3.7-26.3 3.1-37.7-3.1-6.6-3.7-10.2-11.2-9-18.7q-2.2-0.2-3.9 0.8c0.3-0.4 0.8-1.3 1-1.7 0.7 0.1 2.2 0.1 3 0.2q-0.2-6.1 0-12.1c-7.1 3.8-14.6 8.1-18.7 15.3zm102.8 21.2c-5.2 8.6-14.5 13.7-23.8 17-19.9 6.6-42.4 6.6-61.9-1.6-7.7-3.1-14.3-8.5-19.4-15-0.4 5.7 3.8 11 1.8 16.7-11.6 67.7-22.7 135.4-34.1 203.1-0.3 2.1-0.6 4.1-1 6.1-2.8 18-5.9 36-8.7 54-0.8 5.1-2 10-2 15.1 5.6 4.5 13.3 4.1 19.7 2 1.4-3.3 1.6-6.8 2.2-10.2 4.2-25.4 8.4-50.8 12.8-76.1 0.3-2 0.6-4 1-6q1.3-9 3-18c0.3-2 0.6-4 1-5.9 0.6-4.1 1.2-8.1 2-12 2.9-18 6-36 9-54 2.2-14.1 4.5-28.1 7-42.1 0.3-2 0.6-4 1-6 0.3-2 0.6-4 1-6 1.6-11.6 4.1-23.2 5.8-34.8 1.4 0.2 2.9 0.3 4.3 0.7 10 3.2 20.5 4.5 31 4.3 7.6-0.8 15.1-1.9 22.5-3.9 0.5 3.6 1.1 7.2 1.3 10.9 0.6 2.6 0.8 5.2 1 7.9 1.3 7.6 2.1 15.4 3 23.1 0.6 2.6 0.8 5.3 1 7.9 1.5 10 2.8 20 4 30 1.2 7.3 2.3 14.7 3 22 0.6 2.6 0.8 5.3 1 8 1 4.9 1.5 10 2 15 0.9 5 1.6 10 2 15 1.2 7.3 2.2 14.7 3 22 0.9 5 1.5 10 2 15 0.9 5 1.5 10 2 15 0.9 5 1.5 10 2 15 0.9 5 1.5 10 2 15.1q1.8 11.4 3 22.9c1.5 8.6 2.4 17.3 3.9 25.9q1.4 1.2 2.8 2.4c6.2 2 13.2 0.7 17.9-3.8-0.1-1.9-0.2-3.7-0.4-5.5-3.2-19.6-5.4-39.3-8-59-0.6-2.3-0.8-4.6-1-7-8.7-63.6-16.9-127.2-25.4-190.9-0.6-4.7-1.4-9.4-1.6-14.2q-0.5-2.5-0.8-5c4-3.9 7.4-9.3 6.1-15.1zm-81.2 29.7c-0.8 5.2-1.8 10.3-2.7 15.4 5.9 4.9 12 9.4 18.2 13.8-0.2-8.6 0.1-17.1-0.1-25.7-5.2-0.9-10.3-2.1-15.4-3.5zm42.3 3.4c0.1 7.2-0.1 14.3 0.2 21.4q6.2-4.2 12.3-8.5-1-7.4-1.9-14.9-5.3 1-10.6 2zm-23.8 0.5c0.1 9.2 0.1 18.5 0 27.8 2.1 1.6 4.3 3 6.5 4.6 5.3-1.9 9.4-6.1 14.2-9 0.3-7.8-0.1-15.6 0.2-23.4-7 0.5-14 0.5-20.9 0zm-21.9 14.6c-0.6 3.3-1.2 6.7-1.3 10 6.9 5.1 13.7 10.3 20.5 15.6 2.1-2 6.2-2.4 6.9-5.5-8.6-6.9-17.7-13-26.1-20.1zm30.3 21c3.1 1 5.4 4.8 8.9 4.3 6.6-5 13.4-10 20.4-14.6 0-3.2 0.3-6.6-0.9-9.7-9.5 6.6-19.1 13.1-28.4 20zm-37.2 22.2c7.7-5.5 15.8-10.5 23.6-16.1-6.2-4.6-12.2-9.5-18.7-13.6-1.6 9.9-3.5 19.8-4.9 29.7zm54.5-20.7c-2.8 1.8-1.4 5.7-1.6 8.5 5.9 4.5 12 8.8 18.2 13.1-1.4-10.1-2.5-20.2-4-30.3-4.2 3-8.3 5.9-12.6 8.7zm-55.6 25.4c-0.7 3.9-1.3 7.7-1.5 11.5 11.8-8.1 23.9-16.1 35.8-24.2 1.3-1.2 3.4-1.4 4.8-0.1 10.6 7.4 21.1 14.9 31.8 22.2q2.2 1.4 3.9 3.5c-0.6-3.7-1-7.4-1.5-11.1-0.3-1.7-2-2.6-3.2-3.6-11.2-7.7-22.3-15.5-33.9-22.7-12.1 8.1-24.5 15.9-36.2 24.5zm29.9-6.2c0.1 19.9 0.1 39.8 0 59.6 2.4 3.1 5 6.1 7.6 9 4.9-4.4 8.7-10.1 13.1-15.1 0.1-16.1 0-32.2 0-48.3-4.3-3.3-8.6-6.8-13.4-9.4-2.9 0.3-4.9 2.8-7.3 4.2zm-32.1 21.7c2.3 3.3 5 6.3 7.7 9.3 7.1 8.3 14 16.7 21.2 25 0.1-18 0.1-35.8 0.1-53.8q-14.5 9.8-29 19.5zm56 28.4c6.4-8 13-15.7 19.9-23.3 1.2-1.3 2.6-3.4 0.7-4.8-6.6-5.2-13.7-9.8-20.7-14.5q0 21.3 0.1 42.6zm-56.9-23.9c-0.6 3.4-1 7-2.1 10.3 12 14.5 24.5 28.5 36.1 43.3-0.8 3.1-3.6 5.3-5.4 7.9-15.4 18.2-31 36.2-46.5 54.3-1 1.2-1.9 2.4-2.1 4-0.9 4.7-1.9 9.3-2.4 14.1 7.5-9.3 15.6-18.1 23.2-27.3 13.3-15.2 26-30.8 39.8-45.5 17.9 21.8 36.4 43.2 54.5 64.9-0.2-5-0.3-10.2-1.7-15.1-1-1.9-2.4-3.4-3.8-5.1-14.3-16.7-28.3-33.7-42.4-50.6-0.8-1-1.4-2.1-2-3.2 0.7-0.1 2-0.2 2.7-0.3 11-12.7 21.8-25.6 32.8-38.3q-1-5.2-1.3-10.5c-3.2 2.2-5.2 5.6-8 8.3-7.8 9.2-15.6 18.3-23.4 27.6-2.6 2.9-4.4 6.3-6.5 9.5-8.6-10.5-17.4-20.8-26.2-31.1-5.1-5.8-9.8-11.9-15.3-17.2zm-2.4 14.8c-3.4 20.8-7 41.6-10.4 62.4 9.4-2.6 19.1-4.2 28.8-5.4 5-5.8 10.2-11.5 14.6-17.8-10.5-13.5-21.7-26.4-33-39.2zm59.5 31.2c-0.5 5.2-0.5 10.5-0.1 15.7 1.9 3.4 4.7 6.3 7.2 9.3 8.2 0.7 16.2 2.3 24.3 3.7-2.5-19-5.2-38-7.5-57-7.9 9.5-16.2 18.6-23.9 28.3zm-6.4 7.4c-0.5 2.1 1.3 4 3 4.8q0.1-4.1-0.1-8.2c-1.1 1-2.6 1.8-2.9 3.4zm-17.7 24.6c0.2 2.6-0.6 5.5 0.8 7.8 3.1 3.3 8.2 3.1 12.4 2.8 2.6-0.3 6-0.6 7.1-3.4 0.9-2.7-0.8-5.5-2.6-7.5-3.7-4-7-8.3-10.4-12.5-3 3.8-8 7.4-7.3 12.8zm33.5-3.7c8.8 10.1 17.1 20.6 26.1 30.4-1.1-8.9-2-17.9-3.8-26.8-7.4-1.4-14.7-3.1-22.3-3.6zm-79.6 6.4c-0.1 0.3-0.5 1-0.6 1.3-1.5 10.2-3.6 20.3-5 30.6 10.2-12.7 21.2-24.8 31.7-37.3-8.8 1.2-17.6 2.8-26.1 5.4zm-8.5 56.5c-1.3 1.3-2 2.9-2.2 4.7-1.9 12.4-4 24.8-6.1 37.2-0.3 2.6-2.3 4.9-5 5.6-5.8 1.6-12.5 1.6-17.8-1.6-2-1.3-4.1-3.3-3.7-5.9 4.1-28.7 9.6-57.2 13.7-85.9-12.1 6.6-23.6 14.9-31.8 26.1-8 10.6-11.5 24.8-8.2 37.8 3.4 13.8 13.4 25 24.4 33.5 14.8 11.2 32.3 18.5 50.3 22.8 12.5 3.2 25.4 4.5 38.2 5.7 27.5 1 55.3-2.4 81.1-11.9 15.7-6.1 30.9-14.4 42.4-26.8 9.1-9.8 15.4-22.8 14.8-36.5-1.3-11.2-6.4-21.8-13.9-30.2-10.3-11.4-23.5-20-37.7-25.5 4.5 30.2 8.2 60.6 12.5 90.9 0.7 2.9-0.8 6.1-3.3 7.6-4.7 3.5-10.9 3.6-16.4 2.7-2.9-0.9-6.1-2.7-6.6-5.9-2.7-16.7-4.4-33.6-7.1-50.3-4.2-5.7-9.2-10.7-13.7-16.2-8.6-10.5-17.8-20.5-26.1-31.2 0 2.8-1.7 5.5-4.4 6.4-6 2.1-13.1 2.3-18.8-1-2.2-1.2-2.5-3.8-3-6.1q0.1-3 0-6c-17.3 19.9-34.4 40.1-51.6 60zm188.9 25c-3.3 8.8-9.4 16.4-16.3 22.8v0.3c-20.9 18.5-48.2 28-75.3 32.2-16 2.8-32.3 2.6-48.5 2.2-13.8-1.1-27.6-2.8-40.9-6.7-19.6-5.4-38.6-14.2-53.6-28-5.3-5.6-10.5-11.4-14-18.3-0.9-1.3-1-3.3-2.8-3.7 0 8.7-0.2 17.4 0.1 26.1 1.1 11.1 6 21.7 13.1 30.2 10.2 12.5 24.5 20.7 39 27.1 19.4 8.2 40.3 12.2 61.2 13.5 6.6 0.9 13.3 0.4 20 0.3 5-0.9 10.2-0.3 15.2-1.2 21.9-2.4 43.8-7.9 63.2-18.6 12.5-7.1 24.9-15.9 32-28.9 3.8-6.6 5.1-14.1 6.7-21.4 0.2-2.4 0.5-4.7 1-7 0.5-6.9 0.6-13.8 1.3-20.6-0.3-0.1-1-0.2-1.4-0.3zm-238.9 62c6.7 10.7 13.9 21.1 23 29.8 21.4 21.5 50.7 34.7 80.9 37.2 23.7 1.6 47.8-3 68.8-14.2 18.9-9.8 35.2-24.3 47.5-41.6 2.7-4 5.6-7.9 7-12.6-7.6 8.5-17.1 15-27 20.6-16 8.4-33.4 14-51.2 16.7-7.3 1.4-14.7 2-22.1 2.6-14 0.2-28.1 0.6-42-1.6-18.3-2.3-36.2-7.3-53-15.1-10.9-5.6-21.6-12.2-30-21.2-0.5-0.1-1.5-0.4-1.9-0.6z"/>
			</g>
		</g>
		<g id="&lt;Group&gt;">
			<path id="&lt;Path&gt;" class="s1" d="m333.3 108.3c6.2-1.4 12.9-0.8 18.7 1.7 10 4.5 16.6 15.2 16.7 26.1 0 6.3 0.1 12.5 0.2 18.8 0.2 4.2-1.3 8.6-4.8 11.3-8 6.6-19 7.8-29.1 7.2-7.9-0.8-16.5-3.3-21.7-9.8-2.9-3.5-2.5-8.3-2.5-12.6 0.2-9-1-18.6 3.2-27 3.7-7.7 10.9-13.8 19.3-15.7z"/>
			<path id="&lt;Path&gt;" class="s1" d="m289.6 154.6c4.1-7.2 11.6-11.5 18.7-15.3q-0.2 6 0 12.1c-0.8-0.1-2.3-0.1-3-0.2-0.3 0.4-0.7 1.3-1 1.7-2.4 3.9-3.6 9.1-1.5 13.4 2.8 5.8 8.3 9.7 14.1 12.2 12.2 5.1 26 5.6 38.8 2.3 6.9-1.8 13.8-5 18.6-10.5 3.5-4 4.8-9.9 2.8-14.9-1.2-2.8-1.9-6.8-5.4-7.6q-0.2-4.3-0.1-8.6c6.8 3.8 14.3 7.7 18.3 14.8 4.4 7.1 3.4 16.8-1.9 23.1-5.6 6.9-13.9 10.9-22.1 13.8-18.7 5.5-39.5 5.3-57.7-2.1-8.9-3.9-18-10.3-20.7-20.1-1.6-4.7-0.1-9.8 2.1-14.1z"/>
			<path id="&lt;Path&gt;" class="s1" d="m363.2 366.2c7.6 0.5 14.9 2.2 22.3 3.6 1.8 8.9 2.7 17.9 3.8 26.8-9-9.8-17.3-20.3-26.1-30.4z"/>
			<path id="&lt;Path&gt;" class="s1" d="m283.6 372.6c8.5-2.6 17.3-4.2 26.1-5.4-10.5 12.5-21.5 24.6-31.7 37.3 1.4-10.3 3.5-20.4 5-30.6 0.1-0.3 0.5-1 0.6-1.3z"/>
			<path id="&lt;Path&gt;" class="s1" d="m275.1 429.1c17.2-19.9 34.3-40.1 51.6-60q0.1 3 0 6c0.5 2.3 0.8 4.9 3 6.1 5.6 3.3 12.8 3.1 18.8 1 2.7-0.9 4.4-3.6 4.3-6.4 8.4 10.7 17.6 20.7 26.2 31.2 4.5 5.5 9.5 10.5 13.7 16.2 2.7 16.7 4.4 33.6 7.1 50.3 0.5 3.2 3.7 5 6.6 5.9 5.5 0.9 11.7 0.8 16.4-2.7 2.5-1.5 4-4.7 3.3-7.7-4.3-30.2-8-60.6-12.5-90.8 14.2 5.5 27.4 14.1 37.7 25.5 7.4 8.4 12.6 19 13.8 30.2 0.7 13.7-5.6 26.7-14.7 36.5-11.6 12.4-26.8 20.7-42.4 26.8-25.8 9.5-53.6 12.9-81.1 11.9-12.8-1.2-25.7-2.5-38.3-5.7-17.9-4.3-35.4-11.6-50.2-22.8-11.1-8.5-21-19.7-24.4-33.5-3.3-13 0.2-27.2 8.2-37.8 8.2-11.2 19.7-19.5 31.8-26.1-4.2 28.7-9.6 57.2-13.7 85.9-0.4 2.6 1.7 4.6 3.7 5.9 5.3 3.2 12 3.2 17.8 1.6 2.6-0.7 4.7-3 4.9-5.6 2.2-12.4 4.3-24.8 6.2-37.2 0.2-1.8 0.9-3.4 2.2-4.7z"/>
			<path id="&lt;Path&gt;" class="s1" d="m229.3 476.9c15.1 13.8 34.1 22.7 53.7 28 13.3 3.9 27.1 5.6 40.9 6.7 16.2 0.4 32.5 0.6 48.5-2.2 27.1-4.2 54.4-13.6 75.3-32.2-0.1 0.4-0.2 1.2-0.3 1.6-5.3 5.4-11.7 9.5-18.1 13.4-23 13.9-49.8 20.1-76.4 22-16.3 0.4-32.7 0.7-48.9-2.2-19.7-3.3-39.4-9-56.5-19.6-6.8-4.2-13.7-8.7-18.2-15.5z"/>
		</g>
		<g id="&lt;Group&gt;">
			<path id="&lt;Path&gt;" class="s2" d="m371.7 147.8c3.5 0.8 4.2 4.8 5.4 7.6 2 5 0.7 10.9-2.8 14.9-4.8 5.5-11.7 8.7-18.6 10.5-12.8 3.3-26.6 2.8-38.8-2.3-5.8-2.5-11.3-6.4-14.1-12.2-2.1-4.3-0.9-9.5 1.5-13.4q1.7-1 3.9-0.8c-1.2 7.5 2.4 15 9 18.7 11.4 6.2 25.4 6.8 37.7 3.1 6.5-1.8 13-5.7 15.6-12.2 1.5-3.2 1.1-6.9 1.1-10.3l1.3 0.3c-0.3-1-0.9-2.9-1.2-3.9z"/>
		</g>
		<g id="&lt;Group&gt;">
			<path id="&lt;Path&gt;" class="s3" d="m392.4 175.8c1.3 5.8-2.1 11.2-6.1 15.1q0.3 2.5 0.8 5c0.2 4.8 1 9.5 1.6 14.2 8.5 63.7 16.7 127.3 25.4 190.9 0.2 2.4 0.4 4.7 1 7 2.6 19.7 4.8 39.4 8 59 0.2 1.8 0.3 3.6 0.4 5.5-4.7 4.5-11.7 5.8-17.9 3.8q-1.4-1.2-2.8-2.4c-1.5-8.6-2.4-17.3-3.9-25.9q-1.2-11.5-3-23c-0.5-5-1.1-10-2-15-0.5-5-1.1-10-2-15-0.5-5-1.1-10-2-15-0.5-5-1.1-10-2-15-0.8-7.3-1.8-14.7-3-22-0.4-5-1.1-10-2-15-0.5-5-1-10.1-2-15-0.2-2.7-0.4-5.4-1-8-0.7-7.3-1.8-14.7-3-22-1.2-10-2.5-20-4-30-0.2-2.6-0.4-5.3-1-7.9-0.9-7.7-1.7-15.5-3-23.1-0.2-2.7-0.4-5.3-1-7.9-0.3-3.7-0.8-7.3-1.3-10.9-7.4 2-14.9 3.1-22.5 3.9-10.5 0.2-21-1.1-31-4.3-1.4-0.4-2.9-0.5-4.3-0.7-1.7 11.6-4.2 23.2-5.8 34.8-0.4 2-0.7 4-1 6-0.4 2-0.7 4-1 6-2.5 14-4.8 28-7 42.1-3 18-6.1 36-9 54-0.8 3.9-1.4 7.9-2 12-0.4 1.9-0.7 3.9-1 5.9q-1.7 9-3 18c-0.4 2-0.7 4-1 6-4.4 25.3-8.6 50.7-12.8 76.1-0.6 3.4-0.8 6.9-2.2 10.2-6.4 2.1-14.1 2.5-19.7-2 0-5.1 1.2-10 2-15.1 2.8-18 5.9-36 8.7-54 0.4-2 0.7-4 1-6.1 11.4-67.7 22.5-135.4 34.1-203.1 2-5.7-2.2-11-1.8-16.7 5.1 6.5 11.7 11.9 19.4 15 19.5 8.2 42 8.2 61.9 1.6 9.3-3.3 18.6-8.4 23.8-17z"/>
			<path id="&lt;Path&gt;" class="s4" d="m329.7 209.4c6.9 0.5 13.9 0.5 20.9 0-0.3 7.8 0 15.6-0.2 23.4-4.8 2.9-8.9 7.1-14.3 9-2.1-1.6-4.3-3-6.4-4.6 0.1-9.3 0.1-18.6 0-27.8z"/>
			<path id="&lt;Path&gt; copy" class="s3" d="m329.7 209.4c6.9 0.5 13.9 0.5 20.9 0-0.3 7.8 0 15.6-0.2 23.4-4.8 2.9-8.9 7.1-14.3 9-2.1-1.6-4.3-3-6.4-4.6 0.1-9.3 0.1-18.6 0-27.8z"/>
			<path id="&lt;Path&gt;" class="s3" d="m307.8 224c8.4 7.1 17.5 13.2 26.1 20.1-0.7 3.1-4.8 3.5-7 5.5-6.7-5.3-13.5-10.5-20.4-15.6 0.1-3.3 0.7-6.7 1.3-10z"/>
			<path id="&lt;Path&gt;" class="s3" d="m338.1 245c9.3-6.9 18.9-13.4 28.4-20 1.2 3.1 0.9 6.5 0.9 9.8-7 4.5-13.8 9.5-20.4 14.5-3.5 0.5-5.8-3.3-8.9-4.3z"/>
			<path id="&lt;Path&gt;" class="s3" d="m299.8 271.9c11.7-8.6 24.1-16.4 36.2-24.4 11.6 7.1 22.7 14.9 33.9 22.6 1.2 1 2.9 1.9 3.2 3.6 0.5 3.7 0.8 7.4 1.5 11.1q-1.7-2.1-3.9-3.5c-10.7-7.3-21.3-14.8-31.8-22.2-1.4-1.3-3.5-1.1-4.8 0.1-12 8.1-24 16.1-35.9 24.3 0.3-3.9 0.9-7.7 1.6-11.5z"/>
			<path id="&lt;Path&gt;" class="s3" d="m329.7 265.7c2.4-1.4 4.4-3.9 7.3-4.2 4.8 2.6 9.1 6.1 13.4 9.4 0 16.1 0.1 32.2 0 48.3-4.4 5-8.2 10.7-13.1 15.1-2.7-2.9-5.2-5.9-7.6-9 0.1-19.8 0.1-39.7 0-59.6z"/>
			<path id="&lt;Path&gt;" class="s3" d="m296.7 291.9c5.5 5.3 10.2 11.4 15.3 17.2 8.8 10.3 17.6 20.6 26.2 31.1 2.1-3.2 3.9-6.6 6.5-9.5 7.8-9.3 15.6-18.4 23.4-27.6 2.8-2.7 4.8-6.1 8-8.3q0.3 5.3 1.3 10.5c-11 12.7-21.8 25.6-32.8 38.3-0.7 0.1-2 0.2-2.7 0.3 0.6 1.1 1.2 2.2 2 3.2 14.1 16.9 28.1 33.9 42.4 50.7 1.3 1.6 2.8 3.2 3.8 5 1.4 4.9 1.5 10.1 1.7 15.1-18.1-21.7-36.6-43.1-54.5-64.9-13.8 14.7-26.5 30.3-39.8 45.5-7.6 9.2-15.7 18-23.2 27.3 0.5-4.8 1.5-9.4 2.4-14.1 0.2-1.6 1.1-2.8 2.1-4 15.5-18.1 31.1-36.1 46.5-54.3 1.8-2.6 4.6-4.7 5.3-7.9-11.5-14.8-24-28.8-36-43.3 1.1-3.3 1.5-6.9 2.1-10.3z"/>
			<path id="&lt;Path&gt;" class="s3" d="m347.4 345.3c0.3-1.6 1.8-2.4 2.9-3.4q0.2 4.1 0.1 8.2c-1.7-0.8-3.5-2.7-3-4.8z"/>
			<path id="&lt;Path&gt;" class="s4" d="m329.7 369.9c-0.7-5.4 4.3-9 7.3-12.8 3.4 4.2 6.7 8.5 10.4 12.5 1.8 2 3.5 4.8 2.6 7.5-1.1 2.8-4.6 3.1-7.1 3.4-4.2 0.3-9.3 0.5-12.4-2.8-1.4-2.3-0.6-5.2-0.8-7.7z"/>
			<path id="&lt;Path&gt; copy 2" class="s3" d="m329.7 369.9c-0.7-5.4 4.3-9 7.3-12.8 3.4 4.2 6.7 8.5 10.4 12.5 1.8 2 3.5 4.8 2.6 7.5-1.1 2.8-4.6 3.1-7.1 3.4-4.2 0.3-9.3 0.5-12.4-2.8-1.4-2.3-0.6-5.2-0.8-7.7z"/>
			<path id="&lt;Path&gt;" class="s3" d="m464 454.1c0.4 0.1 1.1 0.2 1.4 0.3-0.7 6.8-0.8 13.7-1.3 20.6-0.5 2.3-0.8 4.6-1 7-1.6 7.3-3 14.8-6.7 21.4-7.1 13-19.5 21.8-32 28.9-19.5 10.7-41.3 16.2-63.2 18.6-5 0.9-10.2 0.3-15.2 1.2-6.7 0.1-13.4 0.6-20-0.3-20.9-1.3-41.8-5.3-61.2-13.5-14.5-6.4-28.8-14.6-39-27.1-7.1-8.5-12-19.1-13.1-30.2-0.3-8.7-0.1-17.4-0.1-26.1 1.8 0.4 1.9 2.4 2.8 3.7 3.5 6.9 8.7 12.7 13.9 18.3 4.5 6.8 11.4 11.3 18.2 15.5 17.1 10.6 36.8 16.3 56.5 19.6 16.2 2.8 32.6 2.6 48.9 2.1 26.6-1.8 53.4-8 76.4-21.9 6.4-3.9 12.8-8 18.1-13.4 0.1-0.4 0.2-1.2 0.3-1.6v-0.3c6.9-6.4 13-14 16.3-22.8z"/>
			<path id="&lt;Path&gt;" class="s3" d="m225.1 516.1c0.4 0.2 1.4 0.5 1.8 0.6 8.5 9 19.2 15.6 30.1 21.2 16.8 7.8 34.7 12.8 53 15.1 13.9 2.2 28 1.8 42 1.6 7.4-0.6 14.8-1.2 22.1-2.6 17.8-2.7 35.2-8.3 51.2-16.7 9.9-5.6 19.4-12.1 27-20.6-1.4 4.7-4.3 8.6-7 12.7-12.3 17.2-28.6 31.7-47.5 41.5-21 11.2-45.2 15.8-68.8 14.2-30.2-2.5-59.5-15.7-80.9-37.2-9.1-8.7-16.3-19.1-23-29.8z"/>
		</g>
	</g>
</svg>