<?xml version="1.0" encoding="UTF-8" ?>
<!DOCTYPE svg PUBLIC "-//W3C//DTD SVG 1.1//EN" "http://www.w3.org/Graphics/SVG/1.1/DTD/svg11.dtd">
<svg width="683pt" height="683pt" viewBox="0 0 683 683" version="1.1" xmlns="http://www.w3.org/2000/svg">
<g id="#000000f0">
<path fill="#000000" opacity="0.94" d=" M 314.37 117.38 C 320.86 108.59 332.12 103.68 342.99 104.72 C 353.47 105.25 363.12 112.01 367.85 121.27 C 370.52 125.81 371.03 131.09 371.99 136.15 C 378.61 139.87 385.77 143.34 390.48 149.56 C 394.31 154.11 395.93 160.16 395.59 166.04 C 395.29 171.37 395.84 176.77 394.78 182.04 C 394.01 185.83 391.72 189.03 389.44 192.06 C 392.50 218.42 396.44 244.66 399.77 270.97 C 404.31 305.47 408.87 339.96 413.56 374.43 C 428.54 381.05 443.01 389.73 453.84 402.21 C 460.15 409.20 464.87 417.70 466.98 426.91 C 468.78 434.14 468.29 441.65 468.44 449.03 C 468.44 458.66 468.57 468.30 468.30 477.93 C 467.91 490.19 462.58 501.49 457.50 512.41 C 443.78 540.64 419.46 563.43 390.66 575.81 C 356.80 590.97 316.44 589.75 282.95 574.19 C 263.65 565.06 246.79 551.12 233.69 534.31 C 225.32 523.82 219.44 511.63 214.57 499.20 C 211.34 491.93 209.58 484.03 209.49 476.07 C 209.39 462.40 209.43 448.72 209.85 435.05 C 210.13 423.44 215.06 412.28 222.65 403.61 C 230.93 393.94 241.43 386.41 252.67 380.54 C 255.80 379.45 255.19 375.63 255.87 373.04 C 265.77 311.95 276.30 250.96 286.50 189.93 C 286.90 187.99 286.15 186.11 285.68 184.26 C 283.84 178.01 284.47 171.43 284.13 165.01 C 283.86 159.91 285.54 154.81 288.56 150.71 C 293.27 144.12 300.39 139.72 307.67 136.44 C 308.10 129.63 310.20 122.85 314.37 117.38 M 326.22 111.03 C 319.13 115.01 313.66 121.93 311.85 129.91 C 310.05 138.16 311.05 146.64 310.79 155.01 C 310.53 159.54 312.64 163.88 316.23 166.60 C 324.57 173.26 335.93 174.15 346.18 173.21 C 353.47 172.23 361.15 169.82 366.16 164.13 C 370.83 158.40 367.78 150.62 369.10 144.00 C 368.23 140.00 369.03 135.87 368.33 131.84 C 366.82 123.06 361.36 114.78 353.33 110.68 C 344.95 106.40 334.50 106.55 326.22 111.03 M 294.61 148.42 C 289.92 152.60 286.65 158.70 287.12 165.11 C 287.31 173.81 294.08 180.59 300.98 185.01 C 314.61 193.48 331.28 195.35 347.01 194.43 C 360.98 193.19 375.65 189.31 385.97 179.30 C 392.58 173.21 394.81 162.66 390.33 154.71 C 386.41 147.23 378.66 143.15 371.57 139.24 C 371.57 141.90 371.56 144.57 371.62 147.24 L 372.24 147.70 C 372.69 150.87 371.49 153.92 371.56 157.08 C 371.15 164.09 365.54 169.70 359.35 172.34 C 347.52 177.16 333.85 177.57 321.87 173.01 C 316.89 171.27 312.43 167.81 309.82 163.19 C 307.66 159.48 308.54 155.03 307.66 151.00 C 308.50 147.15 308.12 143.18 308.25 139.27 C 303.51 142.01 298.53 144.52 294.61 148.42 M 384.53 184.49 C 374.30 192.07 361.60 195.85 349.03 196.91 C 338.96 196.13 328.65 197.97 318.79 195.20 C 306.60 192.50 294.96 186.36 287.29 176.30 C 286.92 181.79 290.95 186.81 289.24 192.27 C 287.05 204.26 285.19 216.30 283.01 228.28 C 272.72 290.24 262.32 352.20 251.99 414.15 C 251.22 420.22 250.10 426.23 249.01 432.24 C 247.52 442.59 245.89 452.93 243.95 463.20 C 243.56 465.90 243.36 468.62 243.29 471.36 C 247.02 473.90 251.50 475.24 256.03 474.63 C 259.09 474.29 263.92 474.03 264.05 469.94 C 272.40 420.54 280.41 371.08 288.98 321.72 C 294.57 286.80 300.41 251.92 306.26 217.04 C 306.94 212.08 308.37 207.23 308.69 202.22 C 314.68 202.67 320.29 205.17 326.22 206.08 C 329.20 206.19 332.13 206.69 335.06 207.19 C 338.06 207.26 341.04 206.65 344.05 206.92 C 351.76 206.88 359.27 204.80 366.78 203.23 C 366.79 204.75 366.84 206.28 366.95 207.80 C 367.64 210.03 367.76 212.38 367.97 214.69 C 368.56 217.32 368.73 220.01 368.97 222.69 C 371.08 238.04 373.06 253.41 375.00 268.79 C 376.71 281.11 378.46 293.43 379.99 305.78 C 380.59 308.37 380.74 311.03 380.97 313.68 C 381.87 318.66 382.36 323.70 383.01 328.72 C 384.41 338.69 386.00 348.65 386.98 358.67 C 387.55 360.98 387.75 363.35 387.99 365.72 C 388.80 370.69 389.38 375.70 390.00 380.70 C 390.79 385.66 391.38 390.67 392.00 395.66 C 392.78 400.66 393.41 405.69 394.01 410.71 C 394.82 415.69 395.40 420.70 395.98 425.71 C 397.84 438.03 399.18 450.43 401.01 462.76 C 401.50 465.07 401.77 467.42 401.89 469.78 C 402.23 472.43 403.27 474.87 405.62 476.32 C 411.08 477.99 417.19 477.26 421.85 473.88 C 424.48 472.24 423.06 468.81 423.07 466.32 C 419.29 444.08 417.22 421.58 413.67 399.30 C 413.29 391.91 411.37 384.71 411.02 377.32 C 409.24 364.71 407.43 352.07 406.03 339.40 C 404.39 332.70 404.55 325.75 403.07 319.03 C 402.19 315.14 402.69 311.07 401.63 307.22 C 397.69 276.97 393.37 246.77 389.66 216.49 C 388.76 212.39 388.43 208.21 388.12 204.03 C 387.31 199.32 386.66 194.31 387.64 189.65 C 391.09 185.85 392.86 180.98 393.45 175.93 C 390.00 178.26 387.96 182.11 384.53 184.49 M 311.32 205.46 C 310.28 210.58 309.48 215.75 308.48 220.88 C 314.29 225.79 320.49 230.19 326.64 234.66 C 326.62 226.13 326.68 217.60 326.69 209.08 C 321.52 208.05 316.35 207.03 311.32 205.46 M 353.51 208.93 C 353.55 216.05 353.38 223.17 353.69 230.28 C 357.82 227.50 361.91 224.67 366.00 221.81 C 365.36 216.85 364.74 211.89 364.14 206.93 C 360.59 207.57 357.05 208.23 353.51 208.93 M 329.68 209.36 C 329.80 218.64 329.75 227.91 329.67 237.19 C 332.04 238.69 334.14 241.06 336.95 241.59 C 340.70 240.09 343.71 237.24 347.12 235.12 C 348.41 234.00 350.75 233.22 350.49 231.12 C 350.54 223.88 350.37 216.62 350.55 209.38 C 343.60 209.86 336.62 209.94 329.68 209.36 M 307.76 224.27 C 307.22 227.51 306.70 230.75 306.43 234.03 C 313.38 239.06 320.18 244.30 326.97 249.55 C 329.44 247.87 332.56 246.86 334.24 244.23 C 325.37 237.63 316.60 230.90 307.76 224.27 M 339.14 244.14 C 339.18 244.47 339.25 245.12 339.28 245.45 C 341.38 246.98 343.48 248.66 345.93 249.59 C 347.57 249.30 348.70 247.94 350.03 247.05 C 355.70 242.80 361.44 238.63 367.38 234.79 C 367.50 231.50 367.50 228.15 366.36 225.01 C 357.35 231.48 348.12 237.64 339.14 244.14 M 300.86 267.22 C 308.66 261.77 316.62 256.57 324.51 251.24 C 318.41 246.45 312.27 241.68 305.75 237.47 C 304.19 247.40 302.32 257.28 300.86 267.22 M 355.38 246.58 C 352.61 248.34 354.01 252.21 353.71 254.93 C 359.66 259.50 365.83 263.78 371.98 268.07 C 370.60 257.99 369.44 247.89 367.95 237.84 C 363.78 240.78 359.61 243.73 355.38 246.58 M 302.19 270.16 C 297.85 272.80 299.10 278.79 298.30 283.07 C 310.75 275.35 322.58 266.67 334.89 258.73 C 336.11 257.87 337.81 258.14 338.91 259.08 C 350.71 267.44 362.53 275.77 374.45 283.95 C 374.12 279.87 373.55 275.80 372.43 271.87 C 360.43 263.51 348.45 255.11 335.98 247.45 C 324.66 254.93 313.24 262.28 302.19 270.16 M 330.47 264.85 C 329.10 273.17 330.08 281.64 329.73 290.03 C 330.35 301.74 330.00 313.45 329.66 325.15 C 332.02 328.35 334.65 331.35 337.28 334.33 C 342.22 329.82 346.06 324.25 350.44 319.22 C 350.50 303.11 350.41 287.00 350.43 270.88 C 346.08 267.58 341.84 264.05 336.98 261.54 C 334.52 261.77 332.65 263.81 330.47 264.85 M 297.60 287.39 C 300.54 291.70 304.23 295.42 307.54 299.43 C 313.95 306.79 320.16 314.33 326.51 321.74 C 326.64 303.81 326.57 285.88 326.64 267.95 C 316.93 274.38 307.31 280.95 297.60 287.39 M 353.52 273.21 C 353.54 287.40 353.52 301.58 353.55 315.76 C 359.69 308.20 365.96 300.74 372.55 293.56 C 373.54 292.43 374.53 291.26 375.18 289.89 C 375.29 288.21 373.79 287.33 372.66 286.42 C 366.42 281.82 360.03 277.42 353.52 273.21 M 296.72 291.63 C 296.21 295.21 295.57 298.77 294.59 302.26 C 306.34 316.21 318.30 330.02 329.79 344.20 C 331.86 346.15 329.12 348.29 328.05 349.98 C 311.76 369.68 294.81 388.82 278.30 408.33 C 277.27 409.52 276.70 411.01 276.50 412.57 C 275.83 416.71 274.63 420.77 274.49 424.99 C 276.85 422.86 278.76 420.30 280.87 417.93 C 297.22 398.94 313.42 379.81 329.93 360.95 C 332.39 358.24 334.61 355.30 337.50 353.01 C 341.81 358.81 346.69 364.14 351.25 369.75 C 363.74 384.59 376.15 399.50 388.84 414.17 C 389.83 415.40 391.03 416.43 392.36 417.30 C 391.79 413.63 391.15 409.96 391.17 406.24 C 390.49 403.48 389.20 400.92 387.25 398.85 C 372.76 381.93 358.60 364.73 344.30 347.66 C 343.40 346.50 342.67 345.22 341.94 343.95 C 342.61 343.85 343.94 343.66 344.61 343.56 C 355.61 330.82 366.47 317.96 377.47 305.22 C 376.80 301.77 376.32 298.30 376.08 294.80 C 368.85 301.30 363.10 309.30 356.68 316.58 C 350.39 324.39 342.83 331.37 338.32 340.46 C 324.75 323.94 310.95 307.59 296.72 291.63 M 294.29 306.81 C 290.95 327.58 287.31 348.31 283.86 369.07 C 293.33 366.54 302.99 364.89 312.72 363.71 C 317.69 357.87 322.91 352.22 327.27 345.88 C 324.26 341.57 320.73 337.67 317.38 333.62 C 309.76 324.62 302.30 315.47 294.29 306.81 M 356.49 334.40 C 355.39 335.87 353.66 337.18 353.62 339.18 C 353.46 343.98 353.17 348.83 353.68 353.61 C 355.24 356.49 357.52 358.90 359.56 361.43 C 360.73 363.32 363.12 363.07 365.03 363.39 C 371.81 364.04 378.47 365.45 385.18 366.56 C 382.70 347.61 379.99 328.69 377.76 309.71 C 370.49 317.79 363.69 326.27 356.49 334.40 M 347.28 346.10 C 347.32 347.98 349.08 349.15 350.43 350.16 C 350.47 347.39 350.41 344.62 350.28 341.86 C 349.07 343.05 347.25 344.17 347.28 346.10 M 336.26 358.17 C 333.74 360.44 331.55 363.17 329.97 366.18 C 329.42 369.74 329.88 373.38 329.69 376.98 C 331.69 378.82 334.06 380.52 336.91 380.52 C 341.12 380.69 345.97 381.02 349.49 378.29 C 350.19 375.55 350.08 372.25 347.90 370.19 C 344.24 366.39 341.22 362.03 337.68 358.14 C 337.32 358.15 336.61 358.16 336.26 358.17 M 363.35 366.22 C 371.91 376.61 380.74 386.77 389.42 397.06 C 388.21 387.98 387.21 378.85 385.50 369.86 C 378.15 368.45 370.84 366.73 363.35 366.22 M 283.39 372.56 C 281.50 382.97 279.59 393.39 278.11 403.86 C 288.64 391.74 299.23 379.64 309.49 367.29 C 300.66 368.31 291.96 370.24 283.39 372.56 M 275.48 428.67 C 274.13 430.07 273.08 431.78 272.91 433.77 C 270.95 446.16 268.91 458.54 266.76 470.90 C 266.50 473.61 264.46 475.95 261.81 476.59 C 255.98 478.20 249.24 478.26 243.95 474.97 C 241.96 473.70 239.93 471.64 240.34 469.07 C 244.38 440.36 249.86 411.85 253.99 383.17 C 240.70 390.43 228.05 399.83 219.83 412.78 C 212.64 424.19 210.63 438.88 215.38 451.61 C 220.52 465.54 231.64 476.28 243.72 484.44 C 262.29 496.66 283.92 503.56 305.81 506.74 C 332.45 510.95 359.85 509.82 386.12 503.73 C 406.29 499.21 425.93 491.01 442.21 478.11 C 451.93 470.19 460.11 459.82 463.57 447.62 C 466.71 435.95 464.39 423.22 458.05 413.02 C 448.05 396.47 431.14 385.39 413.65 378.00 C 418.05 408.39 421.82 438.88 426.11 469.29 C 427.28 475.03 421.24 478.44 416.52 479.50 C 411.65 480.06 405.98 480.47 401.96 477.10 C 400.01 475.67 399.67 473.11 399.36 470.90 C 397.27 455.90 395.13 440.90 393.23 425.87 C 393.06 424.27 392.61 422.67 391.45 421.50 C 378.57 406.33 365.46 391.33 352.90 375.91 C 352.71 378.62 351.25 381.36 348.53 382.22 C 342.52 384.36 335.32 384.49 329.70 381.20 C 325.81 378.58 326.95 373.20 326.70 369.21 C 309.46 388.89 292.60 408.89 275.48 428.67 M 447.49 476.97 L 447.53 477.44 C 435.05 488.30 420.23 496.28 404.60 501.59 C 376.70 510.93 346.79 513.73 317.57 511.03 C 285.72 508.32 253.38 498.32 229.01 476.93 C 223.50 469.95 216.31 463.48 214.04 454.56 L 212.56 454.60 C 212.72 464.33 212.22 474.07 212.86 483.79 C 214.71 492.61 218.05 501.22 223.59 508.41 C 232.58 520.71 245.66 529.24 259.23 535.74 C 277.30 544.58 297.21 548.82 317.07 551.23 C 319.16 551.38 321.35 551.17 323.31 552.10 C 331.88 552.29 340.49 551.26 349.06 552.28 C 374.21 550.07 399.84 545.44 422.35 533.36 C 435.30 526.39 448.06 517.60 455.69 504.69 C 460.95 495.94 462.19 485.63 464.07 475.79 C 464.41 468.26 464.99 460.73 465.21 453.20 C 460.31 461.78 455.29 470.64 447.49 476.97 M 230.56 524.57 C 240.82 540.25 254.58 553.53 270.33 563.63 C 287.18 574.35 306.61 580.67 326.40 582.94 C 351.39 585.14 377.10 580.24 399.19 568.19 C 417.89 558.18 434.07 543.56 446.14 526.13 C 448.35 522.63 451.03 519.24 451.97 515.12 C 431.40 536.53 402.24 547.60 373.38 552.05 C 339.12 557.71 303.29 555.13 270.49 543.51 C 253.62 537.45 237.61 528.16 225.21 515.09 C 226.10 518.68 228.73 521.45 230.56 524.57 Z" />
</g>
<g id="#f3eb1cff">
<path fill="#f3eb1c" opacity="1.00" d=" M 326.22 111.03 C 334.50 106.55 344.95 106.40 353.33 110.68 C 361.36 114.78 366.82 123.06 368.33 131.84 C 369.03 135.87 368.23 140.00 369.10 144.00 C 367.78 150.62 370.83 158.40 366.16 164.13 C 361.15 169.82 353.47 172.23 346.18 173.21 C 335.93 174.15 324.57 173.26 316.23 166.60 C 312.64 163.88 310.53 159.54 310.79 155.01 C 311.05 146.64 310.05 138.16 311.85 129.91 C 313.66 121.93 319.13 115.01 326.22 111.03 Z" />
<path fill="#f3eb1c" opacity="1.00" d=" M 294.61 148.42 C 298.53 144.52 303.51 142.01 308.25 139.27 C 308.12 143.18 308.50 147.15 307.66 151.00 C 302.85 152.65 301.28 158.42 301.79 163.00 C 302.81 168.96 307.68 173.39 312.63 176.37 C 322.43 181.79 333.98 183.53 345.06 182.62 C 354.79 181.73 364.92 179.04 372.33 172.34 C 376.79 168.45 379.37 162.03 377.40 156.24 C 376.30 153.10 375.27 149.51 372.24 147.70 L 371.62 147.24 C 371.56 144.57 371.57 141.90 371.57 139.24 C 378.66 143.15 386.41 147.23 390.33 154.71 C 394.81 162.66 392.58 173.21 385.97 179.30 C 375.65 189.31 360.98 193.19 347.01 194.43 C 331.28 195.35 314.61 193.48 300.98 185.01 C 294.08 180.59 287.31 173.81 287.12 165.11 C 286.65 158.70 289.92 152.60 294.61 148.42 Z" />
<path fill="#f3eb1c" opacity="1.00" d=" M 363.35 366.22 C 370.84 366.73 378.15 368.45 385.50 369.86 C 387.21 378.85 388.21 387.98 389.42 397.06 C 380.74 386.77 371.91 376.61 363.35 366.22 Z" />
<path fill="#f3eb1c" opacity="1.00" d=" M 283.39 372.56 C 291.96 370.24 300.66 368.31 309.49 367.29 C 299.23 379.64 288.64 391.74 278.11 403.86 C 279.59 393.39 281.50 382.97 283.39 372.56 Z" />
<path fill="#f3eb1c" opacity="1.00" d=" M 275.48 428.67 C 292.60 408.89 309.46 388.89 326.70 369.21 C 326.95 373.20 325.81 378.58 329.70 381.20 C 335.32 384.49 342.52 384.36 348.53 382.22 C 351.25 381.36 352.71 378.62 352.90 375.91 C 365.46 391.33 378.57 406.33 391.45 421.50 C 392.61 422.67 393.06 424.27 393.23 425.87 C 395.13 440.90 397.27 455.90 399.36 470.90 C 399.67 473.11 400.01 475.67 401.96 477.10 C 405.98 480.47 411.65 480.06 416.52 479.50 C 421.24 478.44 427.28 475.03 426.11 469.29 C 421.82 438.88 418.05 408.39 413.65 378.00 C 431.14 385.39 448.05 396.47 458.05 413.02 C 464.39 423.22 466.71 435.95 463.57 447.62 C 460.11 459.82 451.93 470.19 442.21 478.11 C 425.93 491.01 406.29 499.21 386.12 503.73 C 359.85 509.82 332.45 510.95 305.81 506.74 C 283.92 503.56 262.29 496.66 243.72 484.44 C 231.64 476.28 220.52 465.54 215.38 451.61 C 210.63 438.88 212.64 424.19 219.83 412.78 C 228.05 399.83 240.70 390.43 253.99 383.17 C 249.86 411.85 244.38 440.36 240.34 469.07 C 239.93 471.64 241.96 473.70 243.95 474.97 C 249.24 478.26 255.98 478.20 261.81 476.59 C 264.46 475.95 266.50 473.61 266.76 470.90 C 268.91 458.54 270.95 446.16 272.91 433.77 C 273.08 431.78 274.13 430.07 275.48 428.67 Z" />
<path fill="#f3eb1c" opacity="1.00" d=" M 229.01 476.93 C 253.38 498.32 285.72 508.32 317.57 511.03 C 346.79 513.73 376.70 510.93 404.60 501.59 C 420.23 496.28 435.05 488.30 447.53 477.44 C 447.57 477.79 447.63 478.50 447.66 478.85 C 439.16 487.05 428.70 492.86 418.30 498.27 C 400.87 506.36 382.00 511.20 362.92 513.23 C 349.71 514.88 336.36 514.36 323.09 514.19 C 292.85 511.92 261.84 504.29 237.35 485.61 C 234.16 483.16 230.83 480.63 229.01 476.93 Z" />
</g>
<g id="#dcdfe2ff">
<path fill="#dcdfe2" opacity="1.00" d=" M 372.24 147.70 C 375.27 149.51 376.30 153.10 377.40 156.24 C 379.37 162.03 376.79 168.45 372.33 172.34 C 364.92 179.04 354.79 181.73 345.06 182.62 C 333.98 183.53 322.43 181.79 312.63 176.37 C 307.68 173.39 302.81 168.96 301.79 163.00 C 301.28 158.42 302.85 152.65 307.66 151.00 C 308.54 155.03 307.66 159.48 309.82 163.19 C 312.43 167.81 316.89 171.27 321.87 173.01 C 333.85 177.57 347.52 177.16 359.35 172.34 C 365.54 169.70 371.15 164.09 371.56 157.08 C 371.49 153.92 372.69 150.87 372.24 147.70 Z" />
</g>
<g id="#c5a501ff">
<path fill="#c5a501" opacity="1.00" d=" M 384.53 184.49 C 387.96 182.11 390.00 178.26 393.45 175.93 C 392.86 180.98 391.09 185.85 387.64 189.65 C 386.66 194.31 387.31 199.32 388.12 204.03 C 388.43 208.21 388.76 212.39 389.66 216.49 C 393.37 246.77 397.69 276.97 401.63 307.22 C 402.69 311.07 402.19 315.14 403.07 319.03 C 404.55 325.75 404.39 332.70 406.03 339.40 C 407.43 352.07 409.24 364.71 411.02 377.32 C 411.37 384.71 413.29 391.91 413.67 399.30 C 417.22 421.58 419.29 444.08 423.07 466.32 C 423.06 468.81 424.48 472.24 421.85 473.88 C 417.19 477.26 411.08 477.99 405.62 476.32 C 403.27 474.87 402.23 472.43 401.89 469.78 C 401.77 467.42 401.50 465.07 401.01 462.76 C 399.18 450.43 397.84 438.03 395.98 425.71 C 395.40 420.70 394.82 415.69 394.01 410.71 C 393.41 405.69 392.78 400.66 392.00 395.66 C 391.38 390.67 390.79 385.66 390.00 380.70 C 389.38 375.70 388.80 370.69 387.99 365.72 C 387.75 363.35 387.55 360.98 386.98 358.67 C 386.00 348.65 384.41 338.69 383.01 328.72 C 382.36 323.70 381.87 318.66 380.97 313.68 C 380.74 311.03 380.59 308.37 379.99 305.78 C 378.46 293.43 376.71 281.11 375.00 268.79 C 373.06 253.41 371.08 238.04 368.97 222.69 C 368.73 220.01 368.56 217.32 367.97 214.69 C 367.76 212.38 367.64 210.03 366.95 207.80 C 366.84 206.28 366.79 204.75 366.78 203.23 C 359.27 204.80 351.76 206.88 344.05 206.92 C 341.04 206.65 338.06 207.26 335.06 207.19 C 332.13 206.69 329.20 206.19 326.22 206.08 C 320.29 205.17 314.68 202.67 308.69 202.22 C 308.37 207.23 306.94 212.08 306.26 217.04 C 300.41 251.92 294.57 286.80 288.98 321.72 C 280.41 371.08 272.40 420.54 264.05 469.94 C 263.92 474.03 259.09 474.29 256.03 474.63 C 251.50 475.24 247.02 473.90 243.29 471.36 C 243.36 468.62 243.56 465.90 243.95 463.20 C 245.89 452.93 247.52 442.59 249.01 432.24 C 250.10 426.23 251.22 420.22 251.99 414.15 C 262.32 352.20 272.72 290.24 283.01 228.28 C 285.19 216.30 287.05 204.26 289.24 192.27 C 290.95 186.81 286.92 181.79 287.29 176.30 C 294.96 186.36 306.60 192.50 318.79 195.20 C 328.65 197.97 338.96 196.13 349.03 196.91 C 361.60 195.85 374.30 192.07 384.53 184.49 Z" />
<path fill="#c5a501" opacity="1.00" d=" M 329.68 209.36 C 336.62 209.94 343.60 209.86 350.55 209.38 C 350.37 216.62 350.54 223.88 350.49 231.12 C 350.75 233.22 348.41 234.00 347.12 235.12 C 343.71 237.24 340.70 240.09 336.95 241.59 C 334.14 241.06 332.04 238.69 329.67 237.19 C 329.75 227.91 329.80 218.64 329.68 209.36 Z" />
<path fill="#c5a501" opacity="1.00" d=" M 307.76 224.27 C 316.60 230.90 325.37 237.63 334.24 244.23 C 332.56 246.86 329.44 247.87 326.97 249.55 C 320.18 244.30 313.38 239.06 306.43 234.03 C 306.70 230.75 307.22 227.51 307.76 224.27 Z" />
<path fill="#c5a501" opacity="1.00" d=" M 339.14 244.14 C 348.12 237.64 357.35 231.48 366.36 225.01 C 367.50 228.15 367.50 231.50 367.38 234.79 C 361.44 238.63 355.70 242.80 350.03 247.05 C 348.70 247.94 347.57 249.30 345.93 249.59 C 343.48 248.66 341.38 246.98 339.28 245.45 C 339.25 245.12 339.18 244.47 339.14 244.14 Z" />
<path fill="#c5a501" opacity="1.00" d=" M 302.19 270.16 C 313.24 262.28 324.66 254.93 335.98 247.45 C 348.45 255.11 360.43 263.51 372.43 271.87 C 373.55 275.80 374.12 279.87 374.45 283.95 C 362.53 275.77 350.71 267.44 338.91 259.08 C 337.81 258.14 336.11 257.87 334.89 258.73 C 322.58 266.67 310.75 275.35 298.30 283.07 C 299.10 278.79 297.85 272.80 302.19 270.16 Z" />
<path fill="#c5a501" opacity="1.00" d=" M 330.47 264.85 C 332.65 263.81 334.52 261.77 336.98 261.54 C 341.84 264.05 346.08 267.58 350.43 270.88 C 350.41 287.00 350.50 303.11 350.44 319.22 C 346.06 324.25 342.22 329.82 337.28 334.33 C 334.65 331.35 332.02 328.35 329.66 325.15 C 330.00 313.45 330.35 301.74 329.73 290.03 C 330.08 281.64 329.10 273.17 330.47 264.85 Z" />
<path fill="#c5a501" opacity="1.00" d=" M 296.72 291.63 C 310.95 307.59 324.75 323.94 338.32 340.46 C 342.83 331.37 350.39 324.39 356.68 316.58 C 363.10 309.30 368.85 301.30 376.08 294.80 C 376.32 298.30 376.80 301.77 377.47 305.22 C 366.47 317.96 355.61 330.82 344.61 343.56 C 343.94 343.66 342.61 343.85 341.94 343.95 C 342.67 345.22 343.40 346.50 344.30 347.66 C 358.60 364.73 372.76 381.93 387.25 398.85 C 389.20 400.92 390.49 403.48 391.17 406.24 C 391.15 409.96 391.79 413.63 392.36 417.30 C 391.03 416.43 389.83 415.40 388.84 414.17 C 376.15 399.50 363.74 384.59 351.25 369.75 C 346.69 364.14 341.81 358.81 337.50 353.01 C 334.61 355.30 332.39 358.24 329.93 360.95 C 313.42 379.81 297.22 398.94 280.87 417.93 C 278.76 420.30 276.85 422.86 274.49 424.99 C 274.63 420.77 275.83 416.71 276.50 412.57 C 276.70 411.01 277.27 409.52 278.30 408.33 C 294.81 388.82 311.76 369.68 328.05 349.98 C 329.12 348.29 331.86 346.15 329.79 344.20 C 318.30 330.02 306.34 316.21 294.59 302.26 C 295.57 298.77 296.21 295.21 296.72 291.63 Z" />
<path fill="#c5a501" opacity="1.00" d=" M 347.28 346.10 C 347.25 344.17 349.07 343.05 350.28 341.86 C 350.41 344.62 350.47 347.39 350.43 350.16 C 349.08 349.15 347.32 347.98 347.28 346.10 Z" />
<path fill="#c5a501" opacity="1.00" d=" M 336.26 358.17 C 336.61 358.16 337.32 358.15 337.68 358.14 C 341.22 362.03 344.24 366.39 347.90 370.19 C 350.08 372.25 350.19 375.55 349.49 378.29 C 345.97 381.02 341.12 380.69 336.91 380.52 C 334.06 380.52 331.69 378.82 329.69 376.98 C 329.88 373.38 329.42 369.74 329.97 366.18 C 331.55 363.17 333.74 360.44 336.26 358.17 Z" />
<path fill="#c5a501" opacity="1.00" d=" M 447.49 476.97 C 455.29 470.64 460.31 461.78 465.21 453.20 C 464.99 460.73 464.41 468.26 464.07 475.79 C 462.19 485.63 460.95 495.94 455.69 504.69 C 448.06 517.60 435.30 526.39 422.35 533.36 C 399.84 545.44 374.21 550.07 349.06 552.28 C 340.49 551.26 331.88 552.29 323.31 552.10 C 321.35 551.17 319.16 551.38 317.07 551.23 C 297.21 548.82 277.30 544.58 259.23 535.74 C 245.66 529.24 232.58 520.71 223.59 508.41 C 218.05 501.22 214.71 492.61 212.86 483.79 C 212.22 474.07 212.72 464.33 212.56 454.60 L 214.04 454.56 C 216.31 463.48 223.50 469.95 229.01 476.93 C 230.83 480.63 234.16 483.16 237.35 485.61 C 261.84 504.29 292.85 511.92 323.09 514.19 C 336.36 514.36 349.71 514.88 362.92 513.23 C 382.00 511.20 400.87 506.36 418.30 498.27 C 428.70 492.86 439.16 487.05 447.66 478.85 C 447.63 478.50 447.57 477.79 447.53 477.44 L 447.49 476.97 Z" />
<path fill="#c5a501" opacity="1.00" d=" M 230.56 524.57 C 228.73 521.45 226.10 518.68 225.21 515.09 C 237.61 528.16 253.62 537.45 270.49 543.51 C 303.29 555.13 339.12 557.71 373.38 552.05 C 402.24 547.60 431.40 536.53 451.97 515.12 C 451.03 519.24 448.35 522.63 446.14 526.13 C 434.07 543.56 417.89 558.18 399.19 568.19 C 377.10 580.24 351.39 585.14 326.40 582.94 C 306.61 580.67 287.18 574.35 270.33 563.63 C 254.58 553.53 240.82 540.25 230.56 524.57 Z" />
</g>
</svg>
