<?xml version="1.0" encoding="UTF-8" ?>
<!DOCTYPE svg PUBLIC "-//W3C//DTD SVG 1.1//EN" "http://www.w3.org/Graphics/SVG/1.1/DTD/svg11.dtd">
<svg width="1350pt" height="521pt" viewBox="0 0 1350 521" version="1.1" xmlns="http://www.w3.org/2000/svg">
<g id="#000000ff">
</g>
<g id="#32b2e6ff">
<path fill="#32b2e6" opacity="1.00" d=" M 242.92 45.66 C 265.73 39.16 289.72 37.39 313.32 38.98 C 345.57 41.54 378.15 50.99 403.97 71.10 C 417.88 82.10 430.38 95.25 438.85 110.96 C 443.94 120.72 438.25 133.96 427.84 137.31 C 421.77 140.11 415.27 136.92 408.98 137.83 C 407.26 138.24 405.53 138.54 403.80 138.79 L 403.09 139.23 C 391.04 142.58 381.03 150.63 371.61 158.52 C 355.17 173.36 342.82 192.52 335.23 213.27 C 328.46 231.25 325.98 251.26 330.83 270.04 C 335.24 286.64 344.69 302.08 358.46 312.52 C 363.47 316.84 369.70 319.41 374.71 323.70 C 374.72 325.81 374.67 327.93 374.54 330.05 C 372.31 332.71 368.46 333.63 365.41 331.80 C 347.50 321.97 332.23 306.73 324.00 287.88 C 314.38 265.98 313.95 240.68 320.83 217.95 C 321.17 216.94 321.50 215.93 321.83 214.92 C 331.37 184.81 350.12 157.24 376.17 139.09 C 379.89 136.62 383.52 133.96 387.63 132.15 C 387.60 131.71 387.54 130.82 387.51 130.38 C 384.50 126.98 380.42 124.89 376.09 123.70 C 369.00 123.05 362.21 125.93 356.16 129.32 C 350.63 132.83 344.41 136.06 337.67 135.68 C 322.16 148.18 311.44 165.82 304.16 184.16 C 298.46 199.07 295.09 214.89 294.21 230.82 C 293.80 234.22 290.54 237.23 287.01 236.60 C 284.42 236.49 283.00 233.93 281.55 232.14 C 281.84 223.03 283.38 213.99 284.85 205.00 C 285.22 203.65 285.53 202.29 285.84 200.93 C 291.58 175.71 303.46 151.52 321.61 132.92 C 320.37 130.46 317.07 129.78 315.35 127.60 C 313.91 126.60 313.04 124.16 311.06 124.38 C 308.45 125.93 306.29 128.15 303.77 129.84 C 299.43 133.08 294.24 134.99 288.92 135.81 C 287.39 135.98 286.37 137.23 285.48 138.34 C 278.37 147.61 273.37 158.27 269.17 169.11 C 266.62 175.60 264.71 182.30 262.81 189.00 C 261.30 193.99 254.22 194.35 251.33 190.36 C 250.42 183.96 253.25 178.00 254.82 171.96 C 255.28 170.68 255.73 169.40 256.20 168.12 C 260.05 157.51 264.48 146.98 270.72 137.54 C 266.23 138.35 262.46 141.00 259.01 143.83 C 250.83 150.05 244.20 158.11 238.94 166.88 C 235.10 173.85 232.48 181.42 230.16 189.01 C 228.58 194.29 227.26 199.65 226.14 205.04 C 225.76 206.53 225.54 208.04 225.33 209.57 C 234.31 209.46 243.45 209.18 252.23 211.32 C 262.23 214.27 269.55 225.80 265.60 235.96 C 263.18 242.43 257.64 247.04 252.18 250.94 C 252.99 258.06 252.73 265.66 248.84 271.91 C 245.93 276.64 241.75 280.83 236.56 282.95 C 235.85 289.16 237.64 295.56 236.16 301.75 C 234.93 303.86 232.67 306.02 230.01 305.39 C 227.74 305.22 226.08 303.54 224.52 302.08 C 224.15 297.26 225.40 292.17 223.48 287.57 C 222.74 285.65 221.71 283.87 220.63 282.14 C 220.05 279.06 221.85 276.04 224.81 275.03 C 230.72 272.68 236.69 269.21 239.47 263.19 C 239.67 259.41 240.15 255.52 238.99 251.84 C 238.14 249.11 237.47 245.24 240.38 243.47 C 244.98 240.49 250.45 238.04 253.16 232.97 C 254.20 230.25 253.99 226.62 251.49 224.74 C 248.59 222.19 244.52 222.67 240.96 222.10 C 235.71 221.28 230.36 221.63 225.11 222.28 C 199.92 224.05 176.54 238.48 161.91 258.77 C 160.28 261.08 159.02 263.84 156.53 265.37 C 152.94 266.76 147.75 264.27 148.25 259.99 C 147.92 255.77 151.28 252.74 153.46 249.53 C 168.02 230.69 188.78 216.16 212.32 211.34 C 212.80 207.89 213.37 204.44 214.17 201.05 C 215.38 194.93 217.09 188.92 218.83 182.93 C 222.11 173.17 225.59 163.24 231.79 154.89 C 234.96 150.38 238.38 146.04 242.15 142.02 C 249.13 135.55 256.49 128.80 265.86 126.12 C 271.37 124.22 277.27 124.08 283.03 123.72 C 287.84 123.93 292.67 122.45 296.55 119.62 C 300.95 116.35 304.97 112.59 309.39 109.36 C 311.36 107.78 314.03 108.51 316.35 108.48 C 319.12 111.29 320.01 115.38 322.91 118.09 C 326.25 121.65 331.12 123.83 336.03 123.53 C 341.59 123.96 346.28 120.55 350.85 117.91 C 358.94 113.07 368.59 110.58 378.00 111.80 C 386.49 113.61 395.08 118.40 399.04 126.40 C 402.70 126.23 406.25 125.14 409.94 125.18 C 414.63 124.91 419.30 125.94 423.98 125.54 C 428.39 123.93 428.80 117.99 426.59 114.46 C 415.30 95.65 398.73 80.09 379.45 69.67 C 363.36 60.71 345.39 55.50 327.17 53.16 C 315.17 51.65 303.09 50.26 290.97 50.85 C 285.72 51.74 280.35 51.29 275.10 52.20 C 268.96 52.35 263.05 54.01 257.01 54.90 C 245.73 57.72 234.28 60.09 223.39 64.26 C 187.26 77.46 156.53 103.10 134.20 134.13 C 125.07 146.89 116.78 160.38 110.83 174.93 C 101.89 197.10 89.74 218.02 74.93 236.79 C 68.56 244.38 61.92 251.89 54.04 257.95 C 51.66 260.12 47.26 260.52 45.07 257.89 C 42.70 255.44 42.72 250.87 45.62 248.84 C 53.30 242.80 59.87 235.54 66.03 227.99 C 79.58 210.99 90.12 191.79 98.80 171.91 C 99.22 171.03 99.20 170.04 99.30 169.09 C 99.03 169.54 98.49 170.44 98.22 170.89 C 88.75 177.60 79.59 184.80 69.55 190.66 C 63.87 193.90 58.39 197.51 52.49 200.34 C 49.80 201.26 46.30 200.87 44.62 198.30 C 43.08 196.72 43.55 194.43 43.44 192.45 C 45.02 190.64 46.81 189.00 49.01 187.99 C 74.06 174.98 96.70 157.55 116.04 137.01 C 120.76 132.58 123.73 126.73 127.88 121.83 C 141.07 104.24 156.84 88.53 174.90 75.95 C 184.87 68.47 196.03 62.82 207.20 57.38 C 218.60 52.06 230.70 48.50 242.92 45.66 Z" />
<path fill="#32b2e6" opacity="1.00" d=" M 421.57 168.53 C 424.49 165.42 429.23 166.69 431.66 169.75 C 431.96 172.94 432.00 176.45 429.27 178.65 C 427.07 178.72 424.87 178.72 422.67 178.68 C 419.54 176.28 418.26 171.36 421.57 168.53 Z" />
<path fill="#32b2e6" opacity="1.00" d=" M 373.61 213.70 C 379.53 208.88 387.82 207.62 395.06 209.77 C 402.21 212.45 408.27 218.66 410.32 226.07 C 410.98 231.45 411.31 237.29 408.79 242.27 C 405.20 249.75 397.20 254.76 388.98 255.25 C 383.50 254.87 377.79 253.31 373.70 249.44 C 369.81 245.89 367.31 241.14 365.77 236.16 C 363.88 227.97 366.92 218.86 373.61 213.70 M 381.41 223.45 C 374.11 229.23 379.61 243.52 388.99 242.65 C 392.78 242.70 395.99 239.89 397.75 236.75 C 400.86 229.93 395.72 220.91 388.05 220.71 C 385.75 221.39 383.06 221.48 381.41 223.45 Z" />
<path fill="#32b2e6" opacity="1.00" d=" M 486.17 211.16 C 495.89 208.32 506.43 216.10 507.36 226.00 C 508.41 235.33 500.48 244.58 491.03 244.70 C 481.47 245.53 472.40 236.49 473.35 226.91 C 473.21 219.47 479.14 212.92 486.17 211.16 M 487.72 223.50 C 485.95 225.08 485.28 227.22 485.51 229.55 C 486.50 230.53 487.49 231.51 488.48 232.50 C 490.73 232.68 492.85 232.13 494.56 230.61 C 494.57 228.88 494.58 227.15 494.60 225.42 C 492.85 223.32 490.24 223.16 487.72 223.50 Z" />
<path fill="#32b2e6" opacity="1.00" d=" M 1243.16 251.51 C 1243.68 251.33 1244.72 250.95 1245.24 250.76 C 1246.33 250.95 1247.43 251.13 1248.56 251.34 C 1249.23 253.29 1250.86 255.22 1250.05 257.39 C 1249.04 261.11 1247.52 264.76 1245.14 267.81 C 1246.90 263.17 1251.67 257.88 1248.15 252.98 C 1247.06 251.37 1244.81 251.86 1243.16 251.51 Z" />
<path fill="#32b2e6" opacity="1.00" d=" M 282.49 260.55 C 283.93 258.82 285.41 256.37 287.99 256.48 C 295.33 255.47 298.41 267.67 292.07 270.83 C 290.53 271.92 288.51 271.41 286.76 271.67 C 283.01 269.23 282.15 264.72 282.49 260.55 Z" />
<path fill="#32b2e6" opacity="1.00" d=" M 506.47 267.44 C 510.23 265.03 515.92 268.69 515.48 273.04 C 515.59 277.11 510.74 280.79 506.94 278.78 C 504.43 277.87 503.59 275.12 502.56 272.94 C 503.47 270.88 504.29 268.49 506.47 267.44 Z" />
<path fill="#32b2e6" opacity="1.00" d=" M 135.52 280.93 C 135.71 274.93 144.20 273.44 147.48 277.94 C 147.55 280.63 148.64 284.18 146.08 286.09 C 142.36 290.15 134.67 286.38 135.52 280.93 Z" />
<path fill="#32b2e6" opacity="1.00" d=" M 291.35 291.69 C 292.91 290.22 294.61 288.35 296.97 288.50 C 300.07 288.01 302.48 290.67 303.51 293.31 C 310.17 310.20 320.32 326.13 334.83 337.33 C 341.00 341.49 347.55 345.45 354.83 347.30 C 378.00 338.60 399.53 325.55 418.26 309.38 C 422.66 305.62 426.52 300.91 432.08 298.79 C 439.73 295.35 448.92 295.70 456.27 299.78 C 474.53 309.67 492.90 319.41 511.84 327.93 C 517.51 330.62 523.14 333.44 529.10 335.44 C 530.61 335.92 532.06 336.61 533.34 337.58 C 533.51 337.70 533.86 337.94 534.03 338.05 C 529.75 340.42 525.64 343.07 521.69 345.96 C 499.83 336.59 478.69 325.64 457.63 314.60 C 452.27 311.62 446.39 307.51 439.95 309.32 C 435.12 310.12 431.83 314.06 428.30 317.07 C 396.06 346.30 354.82 364.07 312.46 372.59 C 314.48 375.09 317.61 376.05 320.40 377.41 C 334.68 384.52 349.41 390.72 364.25 396.56 C 366.42 397.44 368.66 398.14 370.94 398.67 C 375.16 381.87 392.06 370.28 408.97 369.62 C 414.78 369.38 420.43 371.05 425.97 372.64 C 437.28 375.83 448.47 379.40 459.79 382.54 C 454.64 378.18 449.36 373.98 443.97 369.92 C 439.26 366.42 436.01 360.94 435.60 355.05 C 434.83 344.10 444.90 333.54 455.96 334.35 C 462.85 334.32 468.13 339.32 474.19 341.82 C 486.20 347.12 498.32 352.50 511.05 355.79 C 504.58 362.84 502.18 372.66 502.33 382.01 C 502.36 387.60 505.87 392.42 510.02 395.86 C 503.80 392.42 500.88 384.84 501.55 377.99 C 501.99 374.22 502.97 370.54 503.77 366.84 C 488.97 361.78 474.24 356.28 460.53 348.68 C 458.32 347.54 455.77 345.82 453.23 347.07 C 448.24 348.54 446.42 356.12 450.66 359.32 C 462.26 368.41 473.97 377.39 485.18 386.99 C 487.97 389.41 491.21 391.49 493.20 394.69 C 493.64 396.22 493.39 397.87 493.47 399.46 C 491.93 401.11 490.36 402.93 488.04 403.44 C 485.83 403.47 483.81 402.43 481.72 401.90 C 461.14 395.94 440.61 389.86 420.05 383.87 C 411.44 381.28 401.73 382.30 394.19 387.34 C 388.71 391.16 384.24 396.68 382.48 403.21 C 402.17 409.62 421.89 416.06 442.07 420.77 C 463.84 426.08 485.76 430.81 507.89 434.37 C 514.24 435.50 520.63 436.35 526.94 437.65 C 529.78 438.26 531.89 441.14 531.51 444.04 C 531.51 446.43 529.21 448.03 527.45 449.26 C 524.33 450.13 521.10 449.17 518.00 448.69 C 469.76 441.16 421.84 430.54 375.83 414.01 C 343.49 402.20 311.61 388.71 281.85 371.28 C 266.48 362.67 252.00 352.61 237.80 342.22 C 232.96 338.36 228.27 334.32 223.43 330.45 C 218.14 326.54 209.93 326.28 204.97 330.87 C 198.54 336.53 192.40 342.50 185.71 347.86 C 151.19 375.22 110.81 395.22 68.00 405.63 C 61.43 407.11 54.77 409.14 47.97 408.68 C 45.93 408.71 44.86 406.73 43.48 405.56 C 43.47 403.86 43.32 402.15 43.59 400.47 C 44.48 398.83 46.18 397.69 47.91 397.06 C 99.36 387.67 148.41 364.46 187.78 329.93 C 193.19 325.05 198.11 319.20 205.14 316.62 C 214.53 313.35 225.59 315.32 233.08 321.95 C 245.47 332.36 258.44 342.11 272.20 350.64 C 274.68 352.15 276.98 354.14 279.91 354.72 C 279.20 354.24 278.50 353.77 277.78 353.31 C 263.59 337.53 253.66 318.30 247.66 298.02 C 247.47 295.64 246.65 292.62 248.94 290.95 C 250.71 288.69 253.75 289.32 256.25 289.31 C 260.28 292.47 260.36 297.93 262.18 302.33 C 270.45 325.65 284.73 348.28 306.97 360.40 C 307.48 360.45 308.51 360.56 309.02 360.61 C 318.16 358.90 327.05 356.00 336.13 353.99 C 336.24 353.72 336.47 353.17 336.58 352.90 C 319.29 343.97 306.84 327.93 297.83 311.05 C 295.16 304.83 290.59 298.79 291.35 291.69 Z" />
<path fill="#32b2e6" opacity="1.00" d=" M 849.79 330.78 C 851.63 327.19 852.90 323.24 855.44 320.05 C 852.06 327.39 848.36 334.63 846.16 342.45 C 843.70 349.59 843.44 357.16 842.44 364.58 C 841.02 366.01 839.58 367.44 838.13 368.84 C 839.19 367.57 840.34 366.37 841.52 365.21 C 842.24 359.46 842.42 353.56 844.17 348.01 C 845.26 342.04 847.62 336.41 849.79 330.78 Z" />
<path fill="#32b2e6" opacity="1.00" d=" M 1041.88 351.01 C 1045.05 346.41 1048.24 341.62 1052.62 338.07 C 1051.03 345.14 1047.60 351.61 1044.96 358.32 C 1040.29 368.70 1035.93 379.27 1030.51 389.29 C 1035.04 378.11 1040.78 367.38 1045.33 356.17 C 1047.14 351.22 1050.28 346.54 1049.91 341.03 C 1046.96 344.14 1045.06 348.12 1041.88 351.01 Z" />
<path fill="#32b2e6" opacity="1.00" d=" M 541.91 339.87 C 544.26 339.11 546.77 339.59 549.20 339.52 C 550.11 340.01 551.04 340.50 551.97 340.99 C 552.34 341.48 553.07 342.47 553.44 342.97 C 553.52 344.73 553.58 346.50 553.64 348.27 C 550.80 352.36 545.55 352.76 541.02 352.21 C 536.86 351.58 532.91 350.16 528.84 349.23 C 532.61 345.36 537.40 342.76 541.91 339.87 Z" />
<path fill="#32b2e6" opacity="1.00" d=" M 985.77 379.98 C 987.30 370.21 990.90 360.32 997.87 353.09 C 993.10 359.67 988.77 366.84 987.38 374.97 C 986.93 378.41 987.11 381.90 987.31 385.36 C 990.28 387.98 994.50 387.46 998.08 386.62 C 1000.27 386.46 1001.33 383.54 1003.67 384.27 C 1000.05 386.64 995.47 388.39 991.05 387.88 C 987.79 386.81 984.96 383.59 985.77 379.98 Z" />
<path fill="#32b2e6" opacity="1.00" d=" M 663.06 379.23 C 664.95 370.41 669.09 362.06 675.00 355.25 L 675.76 354.65 C 669.64 363.21 662.90 372.88 664.22 383.98 C 664.21 387.56 667.23 389.99 670.00 391.69 C 671.77 390.85 673.17 392.66 674.93 392.51 C 677.00 392.66 679.08 392.59 681.16 392.62 C 677.53 393.19 673.84 393.27 670.20 392.76 C 665.92 389.72 661.54 384.91 663.06 379.23 Z" />
<path fill="#32b2e6" opacity="1.00" d=" M 198.10 366.27 C 203.72 362.58 209.16 358.10 215.93 356.76 C 223.35 355.63 231.48 356.70 237.62 361.29 C 277.07 391.79 323.73 411.40 371.14 425.86 C 386.28 430.13 401.42 434.49 416.82 437.71 C 419.72 438.63 422.21 441.71 421.43 444.89 C 420.94 448.03 417.93 449.64 415.10 450.25 C 376.27 441.37 337.98 429.60 301.53 413.43 C 277.70 402.27 254.21 389.90 233.41 373.65 C 230.04 371.16 226.43 368.24 221.97 368.52 C 216.15 368.00 211.54 372.07 206.96 375.00 C 201.81 378.09 197.61 383.69 198.33 389.98 C 197.89 396.02 202.48 400.71 207.02 403.96 C 223.73 416.73 241.39 428.42 260.43 437.43 C 262.45 438.31 264.06 439.84 265.56 441.43 C 265.55 443.15 265.54 444.89 265.54 446.63 C 263.54 448.98 260.24 451.49 257.10 449.63 C 237.61 440.06 218.92 428.71 201.81 415.31 C 197.85 412.22 193.48 409.44 190.58 405.23 C 188.31 402.16 187.05 398.51 186.12 394.85 C 183.55 384.01 189.04 372.39 198.10 366.27 Z" />
<path fill="#32b2e6" opacity="1.00" d=" M 519.34 359.05 C 528.56 361.39 537.50 364.79 546.78 366.91 C 549.58 367.46 552.93 368.90 553.47 372.04 C 554.62 376.22 550.21 380.61 546.05 379.50 C 540.25 378.43 534.72 376.26 529.01 374.82 C 524.10 373.69 519.50 371.31 514.40 371.07 C 514.50 373.80 515.05 376.47 515.66 379.12 C 518.26 382.97 521.54 386.92 526.26 388.06 C 529.19 388.71 532.05 389.66 534.99 390.32 C 541.67 390.25 548.39 391.20 555.08 390.40 C 562.80 389.27 570.73 388.85 578.10 386.08 C 579.57 385.32 581.26 385.50 582.83 385.10 C 584.61 384.52 586.18 383.03 588.19 383.41 C 591.29 382.26 594.09 380.39 597.39 379.82 C 608.94 375.47 620.10 369.63 629.27 361.29 C 620.65 370.66 608.37 375.39 597.03 380.59 C 593.98 382.26 590.33 382.44 587.45 384.48 C 568.41 390.37 547.99 393.50 528.22 389.58 C 523.65 387.71 518.87 385.29 516.31 380.86 C 514.77 378.05 513.06 374.83 513.98 371.54 C 515.09 367.15 516.48 362.65 519.34 359.05 Z" />
<path fill="#32b2e6" opacity="1.00" d=" M 1075.60 372.18 C 1076.64 370.82 1078.03 369.81 1079.50 368.94 C 1078.80 372.96 1077.87 377.03 1078.49 381.12 C 1078.81 383.89 1080.48 386.21 1081.75 388.62 L 1082.15 389.88 C 1078.22 385.02 1076.00 378.14 1078.58 372.13 L 1075.60 372.18 Z" />
<path fill="#32b2e6" opacity="1.00" d=" M 1202.53 382.53 C 1206.85 378.43 1210.57 373.57 1215.47 370.14 C 1215.33 373.42 1214.40 376.71 1215.00 380.00 C 1215.78 387.64 1222.35 393.69 1229.50 395.64 C 1238.19 397.38 1247.32 397.43 1256.00 395.55 C 1250.28 397.80 1244.06 397.83 1238.01 397.61 C 1231.06 397.66 1224.12 394.73 1219.21 389.84 C 1214.46 385.13 1213.71 378.00 1213.79 371.67 C 1210.28 375.52 1206.73 379.42 1202.53 382.53 Z" />
<path fill="#32b2e6" opacity="1.00" d=" M 725.63 374.38 C 726.15 373.95 726.69 373.55 727.25 373.15 C 726.28 382.85 734.43 390.98 743.30 393.28 C 750.50 394.30 757.24 390.87 763.08 387.02 C 758.59 390.82 752.85 393.57 746.94 393.94 C 738.88 393.58 731.25 388.56 727.82 381.26 C 726.70 379.08 727.08 376.38 725.63 374.38 Z" />
<path fill="#32b2e6" opacity="1.00" d=" M 141.53 403.76 C 150.29 400.53 160.70 402.04 167.86 408.16 C 180.87 419.76 195.75 429.08 211.20 437.07 C 213.81 438.44 217.03 440.66 216.47 444.06 C 216.41 447.35 213.15 449.96 209.93 449.64 C 207.85 449.77 206.14 448.45 204.40 447.55 C 191.99 440.55 179.57 433.45 168.35 424.62 C 164.89 422.21 162.02 419.04 158.48 416.74 C 153.68 413.61 146.96 413.72 142.40 417.25 C 133.09 423.99 127.96 434.85 124.24 445.40 C 123.35 447.95 120.85 450.07 118.03 449.74 C 114.47 450.19 111.58 446.39 112.30 443.04 C 113.23 437.56 115.99 432.57 118.29 427.57 C 123.60 417.78 130.86 407.99 141.53 403.76 Z" />
</g>
<g id="#ffffffff">
<path fill="#ffffff" opacity="1.00" d=" M 1228.11 248.55 C 1234.60 244.41 1242.92 243.16 1250.23 245.77 C 1251.53 246.46 1252.72 247.34 1253.84 248.32 L 1254.54 248.48 L 1254.70 249.14 C 1257.14 251.42 1256.73 254.92 1256.76 257.95 C 1256.65 259.97 1256.70 262.08 1255.76 263.93 C 1254.47 267.40 1252.71 270.66 1250.73 273.78 C 1250.09 274.82 1249.44 275.85 1248.81 276.88 C 1248.54 277.32 1247.99 278.20 1247.72 278.64 C 1245.64 281.88 1243.43 285.04 1241.25 288.21 C 1240.23 289.54 1239.23 290.87 1238.28 292.24 C 1237.27 293.57 1236.24 294.88 1235.26 296.22 C 1234.09 297.73 1232.91 299.23 1231.77 300.75 C 1230.29 302.61 1228.70 304.36 1227.20 306.19 C 1225.11 309.05 1222.49 311.47 1220.27 314.22 C 1220.02 314.50 1219.52 315.06 1219.28 315.34 C 1210.04 325.41 1200.35 335.07 1190.27 344.28 C 1186.98 346.98 1184.09 350.12 1180.72 352.71 C 1178.30 354.69 1176.09 356.92 1173.56 358.76 L 1173.53 359.58 L 1172.59 359.58 C 1172.51 360.21 1172.34 361.47 1172.26 362.10 C 1171.71 363.33 1171.24 364.59 1170.79 365.85 C 1169.23 371.35 1168.86 377.35 1170.16 382.91 C 1170.88 385.31 1172.27 387.41 1173.85 389.34 C 1176.35 390.67 1179.25 391.05 1181.95 389.99 C 1182.89 389.58 1183.85 389.17 1184.82 388.76 C 1186.26 387.91 1187.72 387.07 1189.20 386.27 C 1192.19 384.28 1195.02 382.06 1197.82 379.82 C 1200.00 378.02 1202.03 376.06 1204.21 374.25 C 1204.48 374.00 1205.03 373.51 1205.31 373.27 C 1208.19 370.45 1211.26 367.80 1213.81 364.65 L 1214.33 364.50 C 1214.66 364.03 1215.34 363.11 1215.67 362.65 C 1217.11 361.09 1218.51 359.50 1219.78 357.79 C 1221.03 356.07 1222.39 354.42 1223.72 352.74 C 1229.24 345.93 1235.81 340.03 1242.80 334.75 C 1244.93 333.25 1247.05 331.73 1249.18 330.21 C 1250.20 329.55 1251.21 328.88 1252.27 328.23 C 1253.09 327.71 1253.92 327.20 1254.77 326.69 C 1255.82 326.09 1256.86 325.47 1257.93 324.84 C 1258.99 324.32 1260.05 323.79 1261.15 323.28 C 1262.99 322.37 1264.88 321.56 1266.82 320.84 C 1267.89 320.59 1268.93 320.23 1269.95 319.76 C 1274.24 319.18 1278.76 318.81 1283.00 320.00 C 1285.21 321.06 1286.99 322.76 1288.39 324.77 C 1289.82 328.38 1289.81 332.30 1289.34 336.10 C 1288.80 337.37 1288.33 338.65 1287.83 339.93 C 1286.34 342.69 1284.12 344.93 1282.23 347.40 L 1281.72 347.53 C 1281.47 347.84 1280.97 348.46 1280.72 348.77 C 1278.94 350.32 1277.14 351.84 1275.25 353.24 C 1274.20 353.89 1273.20 354.57 1272.21 355.26 C 1271.33 355.74 1270.47 356.23 1269.63 356.71 C 1266.55 358.44 1263.31 359.84 1260.13 361.33 C 1258.46 361.94 1256.81 362.59 1255.21 363.32 C 1254.65 363.46 1253.54 363.74 1252.98 363.87 C 1251.93 364.23 1250.88 364.57 1249.84 364.90 C 1246.27 365.17 1242.38 367.58 1239.07 365.31 C 1239.20 364.68 1239.46 363.43 1239.58 362.81 C 1241.35 362.59 1243.10 362.31 1244.86 361.93 C 1245.86 361.58 1246.87 361.22 1247.89 360.86 C 1251.77 359.30 1255.38 357.18 1259.07 355.24 C 1266.45 350.84 1273.66 345.89 1279.34 339.37 C 1279.82 338.56 1280.32 337.75 1280.83 336.95 C 1281.08 336.45 1281.58 335.46 1281.82 334.96 C 1283.00 332.80 1282.40 330.24 1282.38 327.90 C 1281.84 327.56 1280.75 326.88 1280.21 326.54 C 1277.38 326.39 1274.58 326.85 1272.09 328.23 C 1270.33 329.08 1268.57 329.91 1266.82 330.73 C 1263.52 332.76 1260.29 334.89 1257.21 337.25 C 1249.67 343.65 1242.51 350.64 1236.73 358.70 C 1235.37 360.75 1234.03 362.82 1232.73 364.91 C 1232.25 365.99 1231.75 367.06 1231.27 368.14 C 1230.40 369.72 1229.72 371.40 1229.19 373.12 C 1228.74 374.72 1228.35 376.34 1227.69 377.87 C 1227.12 381.53 1227.49 385.23 1229.60 388.36 C 1230.63 389.38 1231.71 390.37 1232.82 391.34 C 1237.62 393.47 1243.03 392.66 1248.10 392.28 C 1251.09 391.20 1254.18 390.39 1257.17 389.29 C 1260.33 387.69 1263.72 386.56 1266.81 384.78 C 1267.84 384.24 1268.89 383.71 1269.96 383.19 C 1271.23 382.38 1272.52 381.57 1273.82 380.78 C 1284.30 374.26 1293.53 365.64 1300.28 355.28 C 1301.05 353.56 1303.25 354.45 1304.68 354.39 C 1303.86 357.35 1301.79 359.69 1300.27 362.29 C 1299.10 363.77 1297.91 365.23 1296.80 366.75 C 1292.78 371.70 1288.14 376.17 1283.27 380.28 C 1281.54 381.56 1279.90 382.93 1278.21 384.24 C 1276.17 385.55 1274.18 386.91 1272.19 388.26 C 1267.05 391.21 1261.75 394.03 1256.00 395.55 C 1247.32 397.43 1238.19 397.38 1229.50 395.64 C 1222.35 393.69 1215.78 387.64 1215.00 380.00 C 1214.40 376.71 1215.33 373.42 1215.47 370.14 C 1210.57 373.57 1206.85 378.43 1202.53 382.53 C 1197.23 387.76 1191.23 392.44 1184.32 395.33 C 1183.16 395.50 1182.02 395.68 1180.90 395.88 C 1178.03 396.73 1174.96 396.61 1172.08 395.94 C 1169.40 395.76 1166.99 394.65 1164.69 393.37 C 1163.17 392.07 1161.77 390.64 1160.48 389.13 C 1160.46 388.83 1160.41 388.23 1160.39 387.93 C 1156.75 381.88 1159.07 374.45 1158.66 367.79 C 1158.33 368.20 1157.65 369.01 1157.31 369.42 L 1156.54 369.51 L 1156.47 370.29 C 1151.91 375.13 1146.98 379.61 1141.79 383.77 C 1137.31 387.25 1132.31 389.95 1127.17 392.30 C 1125.73 392.80 1124.31 393.34 1122.89 393.84 C 1121.87 394.17 1120.86 394.50 1119.87 394.84 C 1116.61 395.85 1113.24 396.44 1109.88 396.93 C 1103.97 397.82 1097.84 397.64 1092.09 395.96 C 1090.67 395.39 1089.26 394.81 1087.86 394.26 C 1086.09 392.97 1084.41 391.57 1082.73 390.20 C 1082.48 389.80 1082.00 389.01 1081.75 388.62 C 1080.48 386.21 1078.81 383.89 1078.49 381.12 C 1077.87 377.03 1078.80 372.96 1079.50 368.94 C 1078.03 369.81 1076.64 370.82 1075.60 372.18 C 1072.46 375.90 1068.72 379.05 1065.30 382.49 L 1064.75 382.55 C 1064.49 382.85 1063.97 383.45 1063.71 383.75 C 1059.43 387.46 1055.26 391.31 1050.74 394.75 C 1049.21 395.90 1047.70 397.08 1046.20 398.25 C 1043.39 400.12 1040.55 401.93 1037.80 403.88 C 1036.56 407.16 1034.83 410.22 1033.32 413.37 C 1031.56 416.91 1029.78 420.45 1028.12 424.04 C 1027.27 425.59 1026.48 427.17 1025.69 428.75 C 1023.58 432.99 1021.28 437.14 1019.31 441.45 L 1018.47 441.66 C 1018.51 442.11 1018.61 443.00 1018.65 443.45 L 1017.43 443.62 C 1017.45 443.99 1017.47 444.73 1017.48 445.10 C 1017.19 445.67 1016.60 446.80 1016.30 447.37 L 1015.38 447.57 C 1015.41 448.01 1015.49 448.89 1015.53 449.33 L 1014.59 449.46 C 1014.19 450.48 1013.80 451.50 1013.41 452.53 L 1012.49 452.67 C 1012.52 453.10 1012.58 453.98 1012.61 454.42 L 1011.42 454.60 C 1011.42 454.97 1011.41 455.69 1011.41 456.05 C 1009.32 458.48 1007.69 461.23 1005.76 463.77 C 1004.46 465.44 1003.09 467.05 1001.72 468.67 C 1001.49 468.95 1001.01 469.53 1000.77 469.82 C 998.95 471.99 996.95 473.99 994.81 475.83 C 993.15 477.17 991.47 478.51 989.71 479.71 C 988.88 480.24 988.06 480.78 987.25 481.33 C 984.27 482.86 981.18 484.23 977.88 484.90 C 975.61 485.61 973.23 485.49 970.91 485.28 C 969.31 484.75 967.71 484.35 966.10 483.93 C 964.00 483.06 961.86 482.19 960.17 480.64 L 959.45 480.59 L 959.38 479.85 C 959.09 479.51 958.51 478.85 958.22 478.52 L 957.75 478.41 C 957.44 477.84 956.82 476.72 956.51 476.16 C 956.44 472.20 955.32 467.60 957.49 464.08 C 957.48 463.77 957.44 463.17 957.42 462.86 C 958.52 461.62 959.13 460.07 959.64 458.51 L 960.54 458.36 C 960.53 458.01 960.52 457.31 960.52 456.96 C 961.39 455.92 962.17 454.80 962.78 453.59 L 963.23 453.39 C 964.05 451.82 965.23 450.50 966.50 449.29 L 966.52 448.70 C 971.09 443.56 975.93 438.63 981.21 434.22 C 983.07 432.75 984.86 431.19 986.73 429.72 C 988.24 428.59 989.69 427.38 991.18 426.20 C 992.50 425.20 993.82 424.20 995.18 423.23 C 997.61 421.39 1000.08 419.59 1002.55 417.79 C 1003.97 416.80 1005.38 415.80 1006.81 414.80 C 1010.90 411.89 1015.08 409.10 1019.24 406.26 C 1020.03 405.75 1020.84 405.25 1021.67 404.77 C 1022.55 404.20 1023.27 403.46 1023.84 402.57 L 1024.64 402.38 C 1024.58 401.94 1024.44 401.06 1024.38 400.62 L 1025.57 400.38 C 1025.52 399.94 1025.42 399.06 1025.37 398.62 L 1026.58 398.38 C 1026.51 397.92 1026.39 397.01 1026.32 396.56 L 1027.56 396.38 C 1027.54 396.01 1027.50 395.28 1027.48 394.91 C 1027.79 394.40 1028.40 393.36 1028.71 392.85 C 1029.26 391.64 1029.83 390.44 1030.51 389.29 C 1035.93 379.27 1040.29 368.70 1044.96 358.32 C 1047.60 351.61 1051.03 345.14 1052.62 338.07 C 1048.24 341.62 1045.05 346.41 1041.88 351.01 C 1041.71 351.27 1041.36 351.80 1041.19 352.07 C 1040.83 352.55 1040.49 353.04 1040.16 353.53 C 1039.16 354.75 1038.18 355.98 1037.23 357.23 C 1036.22 358.54 1035.21 359.85 1034.25 361.20 C 1032.88 362.91 1031.45 364.57 1030.18 366.36 L 1029.79 366.57 C 1028.58 368.45 1027.09 370.13 1025.54 371.73 L 1025.40 372.19 C 1022.37 375.55 1019.26 378.86 1015.80 381.77 C 1015.52 382.01 1014.97 382.47 1014.69 382.70 C 1013.23 383.91 1011.77 385.11 1010.29 386.29 C 1008.89 387.25 1007.52 388.26 1006.17 389.28 C 1004.43 390.16 1002.69 391.04 1000.97 391.95 C 999.95 392.28 998.93 392.61 997.92 392.95 C 992.61 394.45 986.83 393.69 981.91 391.28 C 980.08 389.95 978.32 388.50 977.23 386.49 L 976.67 386.38 C 974.92 381.18 975.09 375.59 975.63 370.20 C 975.11 370.28 974.06 370.45 973.54 370.53 L 973.59 371.54 L 972.83 371.59 C 972.52 371.89 971.89 372.49 971.57 372.79 L 971.50 373.52 L 970.73 373.53 C 968.85 375.41 966.88 377.21 964.75 378.79 C 963.22 379.92 961.72 381.10 960.22 382.25 C 958.18 383.56 956.18 384.93 954.20 386.30 C 952.47 387.24 950.76 388.22 949.14 389.31 C 948.05 389.81 946.99 390.33 945.94 390.85 C 943.34 392.34 940.62 393.56 937.89 394.74 C 935.03 396.07 932.01 396.97 929.19 398.35 C 928.62 398.47 927.49 398.69 926.92 398.81 C 925.68 399.35 924.42 399.83 923.18 400.32 C 922.62 400.45 921.49 400.69 920.92 400.81 C 919.64 401.40 918.23 401.61 916.87 401.87 C 915.27 402.31 913.66 402.73 912.09 403.22 C 910.08 403.42 908.03 403.54 906.16 404.29 C 902.82 404.80 899.39 404.38 896.11 405.19 C 892.38 405.40 888.64 405.39 884.92 405.16 C 882.24 404.55 879.48 404.63 876.77 404.31 C 873.93 403.41 870.98 402.88 868.18 401.84 C 866.50 401.20 864.85 400.50 863.23 399.76 C 861.51 398.84 859.83 397.86 858.23 396.78 C 857.03 395.90 855.83 395.04 854.61 394.23 L 854.53 393.44 L 853.45 393.55 L 853.54 392.45 L 852.43 392.57 L 852.46 391.79 C 852.15 391.47 851.53 390.84 851.22 390.52 L 850.47 390.55 L 850.60 389.46 L 849.70 389.42 C 849.22 388.47 848.76 387.53 848.30 386.58 L 847.68 386.43 C 846.77 384.61 845.85 382.81 845.11 380.93 C 844.66 379.65 844.17 378.39 843.61 377.18 C 843.46 375.58 843.34 373.97 843.29 372.38 C 842.43 372.35 841.58 372.32 840.74 372.30 C 839.68 373.45 838.62 374.60 837.53 375.71 L 837.47 376.48 L 836.74 376.50 C 836.43 376.81 835.80 377.42 835.49 377.73 L 835.51 378.50 L 834.45 378.42 L 834.45 379.44 L 833.69 379.54 C 831.00 382.25 828.21 384.87 825.26 387.29 C 823.09 388.81 820.92 390.31 818.68 391.72 C 816.52 392.96 814.22 393.93 811.96 394.96 C 810.66 395.38 809.30 395.66 807.99 395.99 C 804.75 396.90 801.26 396.96 798.04 395.97 C 796.88 395.42 795.72 394.89 794.55 394.38 L 794.50 393.48 L 793.41 393.61 L 793.42 392.83 C 793.13 392.48 792.56 391.78 792.27 391.43 L 791.40 391.40 C 791.45 390.95 791.55 390.05 791.60 389.60 L 790.64 389.45 C 788.72 383.67 789.69 377.54 789.65 371.59 L 790.29 371.43 C 790.25 367.07 792.58 363.17 792.70 358.85 C 790.47 360.26 788.68 362.22 787.20 364.38 L 786.72 364.49 C 786.50 364.84 786.07 365.55 785.86 365.90 C 780.53 371.55 775.19 377.24 769.23 382.24 C 767.72 383.39 766.28 384.62 764.86 385.86 C 764.42 386.15 763.53 386.73 763.08 387.02 C 757.24 390.87 750.50 394.30 743.30 393.28 C 734.43 390.98 726.28 382.85 727.25 373.15 C 726.69 373.55 726.15 373.95 725.63 374.38 C 723.65 376.22 721.87 378.29 719.62 379.80 L 719.36 380.19 C 716.65 382.23 714.01 384.36 711.18 386.23 C 703.52 391.32 695.05 395.47 685.91 396.97 C 675.93 398.37 664.80 397.80 656.59 391.27 L 656.46 390.79 C 656.16 390.47 655.54 389.83 655.23 389.51 L 654.73 389.47 C 653.95 388.19 653.10 386.96 652.24 385.75 C 651.70 384.54 651.21 383.30 650.72 382.09 C 650.43 378.42 649.98 374.63 651.06 371.05 C 651.66 367.58 652.60 364.09 654.50 361.09 C 654.49 360.73 654.47 360.00 654.45 359.63 L 655.41 359.56 C 655.81 358.54 656.21 357.53 656.62 356.52 L 657.29 356.43 C 657.75 355.47 658.21 354.52 658.68 353.57 L 659.23 353.41 C 660.67 351.12 662.57 349.18 664.49 347.30 L 664.54 346.53 L 665.28 346.51 C 665.58 346.20 666.20 345.59 666.50 345.28 L 666.62 344.82 C 669.26 342.74 671.56 340.28 674.23 338.24 C 675.76 337.08 677.26 335.89 678.78 334.73 C 680.13 333.76 681.46 332.77 682.80 331.78 C 684.58 330.56 686.38 329.38 688.19 328.21 C 689.02 327.68 689.87 327.17 690.72 326.66 C 691.80 326.06 692.85 325.44 693.91 324.79 C 694.97 324.27 696.04 323.75 697.12 323.26 C 698.96 322.34 700.86 321.54 702.80 320.82 C 703.87 320.57 704.91 320.21 705.93 319.75 C 710.66 319.16 715.74 318.63 720.24 320.63 C 721.64 321.67 723.06 322.80 723.78 324.46 L 724.33 324.56 C 724.42 325.76 724.76 326.87 725.35 327.90 C 725.39 330.86 726.18 334.16 724.66 336.87 C 724.60 337.51 724.48 338.80 724.42 339.44 L 723.63 339.49 C 723.21 340.48 722.80 341.48 722.40 342.48 L 721.81 342.61 C 720.66 344.52 719.13 346.16 717.52 347.70 L 717.43 348.22 C 717.10 348.46 716.44 348.95 716.11 349.20 C 714.71 350.43 713.29 351.64 711.81 352.78 C 710.79 353.43 709.78 354.10 708.79 354.79 C 704.79 357.37 700.42 359.29 696.12 361.30 C 694.43 361.89 692.78 362.56 691.17 363.31 C 690.61 363.45 689.50 363.73 688.94 363.87 C 686.07 365.01 682.97 365.29 680.05 366.20 C 679.26 366.24 677.69 366.32 676.91 366.36 C 676.22 365.87 675.50 365.46 674.74 365.14 C 674.67 364.79 674.53 364.08 674.46 363.72 C 675.04 363.47 676.20 362.96 676.78 362.70 C 679.68 362.33 682.44 361.37 685.16 360.35 C 687.39 359.13 689.75 358.15 691.92 356.82 C 692.95 356.28 694.00 355.75 695.06 355.23 C 696.31 354.41 697.59 353.59 698.87 352.79 C 700.93 351.58 702.89 350.21 704.82 348.79 C 705.98 347.91 707.14 347.03 708.36 346.22 L 708.51 345.75 C 708.83 345.46 709.48 344.88 709.80 344.59 L 710.31 344.48 C 711.35 343.41 712.42 342.36 713.50 341.33 L 713.53 340.51 L 714.27 340.51 C 714.56 340.18 715.15 339.52 715.44 339.20 L 715.54 338.77 C 715.86 338.30 716.49 337.37 716.81 336.90 C 718.39 333.78 720.16 328.56 716.26 326.50 C 713.42 326.44 710.59 326.81 708.07 328.19 C 706.32 329.03 704.57 329.87 702.84 330.73 C 702.37 331.00 701.41 331.52 700.94 331.79 C 699.68 332.59 698.44 333.42 697.21 334.26 C 695.86 335.22 694.53 336.21 693.21 337.21 C 691.11 338.82 689.16 340.61 687.31 342.49 L 686.82 342.59 C 686.50 342.89 685.87 343.49 685.55 343.79 L 685.52 344.55 L 684.42 344.46 L 684.51 345.26 C 684.20 345.58 683.57 346.22 683.26 346.54 L 682.45 346.44 L 682.57 347.55 L 681.80 347.52 C 681.49 347.84 680.88 348.49 680.58 348.81 L 680.50 349.29 C 678.59 351.20 676.82 353.25 675.00 355.25 C 669.09 362.06 664.95 370.41 663.06 379.23 C 661.54 384.91 665.92 389.72 670.20 392.76 C 673.84 393.27 677.53 393.19 681.16 392.62 C 681.89 392.51 683.34 392.29 684.07 392.19 C 687.32 391.01 690.77 390.37 693.91 388.85 C 696.22 387.82 698.55 386.85 700.83 385.75 C 703.64 384.37 706.34 382.79 709.06 381.23 C 710.10 380.56 711.14 379.88 712.20 379.22 C 713.54 378.25 714.88 377.26 716.24 376.31 C 717.81 375.14 719.35 373.90 720.77 372.54 L 721.51 372.55 L 721.63 371.82 C 724.33 369.77 726.78 367.37 728.84 364.68 L 729.29 364.46 C 730.07 363.20 730.91 361.98 731.78 360.78 C 732.79 359.46 733.78 358.12 734.69 356.73 C 738.81 351.55 743.66 347.01 748.65 342.68 C 748.95 342.45 749.56 341.99 749.86 341.76 C 751.32 340.58 752.77 339.38 754.26 338.22 C 755.63 337.19 757.01 336.19 758.44 335.24 C 759.37 334.56 760.30 333.89 761.26 333.23 C 762.27 332.58 763.28 331.94 764.32 331.32 C 765.75 330.42 767.20 329.56 768.66 328.69 C 770.41 327.74 772.16 326.79 773.88 325.76 C 775.23 325.18 776.57 324.53 777.87 323.80 C 779.54 323.15 781.20 322.45 782.83 321.67 C 790.84 318.95 799.72 318.23 807.98 320.10 C 809.25 320.77 810.52 321.46 811.78 322.18 C 812.92 323.13 814.17 324.03 814.79 325.44 L 815.32 325.59 C 815.67 326.90 816.10 328.19 816.62 329.46 C 815.62 329.53 814.63 329.61 813.65 329.68 L 813.59 328.49 L 812.48 328.56 L 812.35 327.70 C 811.79 327.49 810.68 327.06 810.13 326.84 C 808.78 326.51 807.44 326.15 806.15 325.70 C 803.72 325.51 801.29 325.52 798.88 325.73 C 797.27 326.37 795.56 326.61 793.86 326.79 C 792.85 327.12 791.85 327.46 790.87 327.81 C 789.85 328.16 788.84 328.48 787.82 328.78 C 783.48 330.66 779.23 332.79 775.17 335.22 C 774.15 335.88 773.15 336.55 772.15 337.21 C 771.33 337.72 770.52 338.23 769.72 338.74 C 767.04 340.71 764.39 342.71 761.79 344.77 C 758.65 347.27 755.81 350.12 753.19 353.13 C 752.98 353.49 752.55 354.20 752.34 354.55 L 751.79 354.64 C 750.91 356.11 749.76 357.39 748.68 358.71 C 748.43 358.98 747.93 359.52 747.68 359.79 C 747.21 360.67 746.75 361.56 746.30 362.45 L 745.69 362.48 C 745.22 363.46 744.76 364.44 744.31 365.42 L 743.63 365.54 C 743.21 366.54 742.80 367.55 742.39 368.55 L 741.42 368.62 C 741.46 369.06 741.55 369.94 741.59 370.38 L 740.38 370.62 C 740.44 371.06 740.55 371.95 740.61 372.40 L 739.35 372.57 C 739.39 372.95 739.48 373.70 739.52 374.08 C 738.55 375.15 738.21 376.58 737.66 377.87 C 737.33 381.10 737.62 384.34 738.62 387.43 L 739.18 387.51 C 740.52 390.01 743.62 389.77 745.93 388.96 C 748.86 387.68 751.62 386.09 754.27 384.30 C 755.59 383.28 756.92 382.26 758.28 381.29 C 760.45 379.47 762.52 377.52 764.76 375.76 C 767.36 373.74 769.64 371.35 772.12 369.19 C 772.47 368.96 773.15 368.51 773.50 368.29 L 773.48 367.49 L 774.29 367.49 C 778.19 363.59 782.45 359.99 785.84 355.61 L 786.61 355.57 L 786.51 354.78 C 786.82 354.46 787.44 353.83 787.75 353.51 L 788.52 353.52 L 788.41 352.44 L 789.16 352.36 C 794.24 346.39 800.04 341.07 805.58 335.54 C 806.70 335.23 807.82 334.93 808.96 334.65 C 810.02 335.13 811.12 335.50 812.26 335.77 C 813.66 336.36 815.06 337.00 816.45 337.67 L 816.46 338.55 L 817.64 338.69 C 817.06 340.11 816.48 341.55 815.58 342.79 L 815.62 343.57 L 814.44 343.61 C 814.47 344.05 814.52 344.93 814.54 345.37 L 813.38 345.45 L 813.60 346.58 L 812.46 346.66 C 812.50 347.11 812.59 348.00 812.63 348.45 L 811.38 348.59 C 811.42 349.03 811.51 349.92 811.55 350.36 L 810.37 350.56 C 810.40 351.01 810.48 351.91 810.51 352.35 L 809.34 352.55 C 809.38 353.00 809.47 353.90 809.51 354.36 L 808.30 354.54 C 808.36 355.00 808.48 355.92 808.55 356.38 L 807.35 356.60 C 807.39 356.96 807.47 357.69 807.51 358.05 C 806.60 359.15 806.23 360.55 805.70 361.83 C 804.79 365.02 803.27 368.09 803.35 371.49 L 802.61 371.56 C 802.30 376.49 802.08 381.43 802.45 386.36 C 805.54 391.67 812.79 390.09 816.85 386.83 C 819.39 385.07 821.86 383.21 824.28 381.28 C 826.11 379.79 827.87 378.22 829.69 376.72 C 829.96 376.42 830.49 375.82 830.76 375.52 L 831.28 375.49 C 833.54 373.25 835.86 371.07 838.13 368.84 C 839.58 367.44 841.02 366.01 842.44 364.58 C 843.44 357.16 843.70 349.59 846.16 342.45 C 848.36 334.63 852.06 327.39 855.44 320.05 C 855.76 319.46 856.38 318.29 856.69 317.71 C 856.94 317.17 857.44 316.08 857.69 315.54 L 858.59 315.39 C 858.55 314.96 858.49 314.09 858.46 313.66 L 859.60 313.59 L 859.38 312.45 L 860.49 312.30 C 860.47 311.86 860.42 310.98 860.40 310.55 L 861.34 310.49 C 861.76 309.50 862.18 308.52 862.62 307.53 L 863.28 307.41 C 863.73 306.54 864.20 305.67 864.68 304.81 C 866.45 302.55 868.13 300.22 869.77 297.86 C 870.00 297.56 870.48 296.96 870.72 296.66 C 871.89 295.19 873.10 293.75 874.30 292.31 C 874.52 292.01 874.95 291.41 875.17 291.12 C 877.17 288.75 879.27 286.48 881.48 284.30 L 881.53 283.52 L 882.58 283.54 L 882.49 282.48 L 883.24 282.47 C 883.55 282.16 884.18 281.54 884.49 281.23 L 884.48 280.47 L 885.56 280.57 L 885.49 279.49 L 886.56 279.57 L 886.48 278.49 L 887.54 278.56 L 887.64 277.81 C 890.29 275.75 892.56 273.26 895.25 271.25 C 896.76 270.09 898.22 268.88 899.67 267.64 C 900.90 266.83 902.12 266.03 903.39 265.26 C 903.45 265.12 903.57 264.84 903.64 264.71 C 904.68 264.09 905.72 263.46 906.78 262.83 C 907.80 262.14 908.83 261.45 909.88 260.78 C 910.36 260.52 911.31 259.98 911.79 259.71 C 912.59 259.24 913.39 258.77 914.21 258.30 C 915.46 257.55 916.77 256.87 918.10 256.23 C 919.39 255.50 920.73 254.85 922.11 254.27 C 924.39 253.16 926.73 252.17 929.12 251.26 C 930.12 250.91 931.13 250.57 932.16 250.25 C 933.40 249.76 934.65 249.32 935.92 248.88 C 937.27 248.65 938.67 248.42 939.94 247.82 C 944.54 246.93 949.20 246.41 953.85 245.78 C 955.61 245.73 957.38 245.73 959.16 245.78 C 961.73 246.36 964.40 246.36 966.94 247.13 C 968.01 247.33 969.09 247.53 970.19 247.72 C 971.37 248.27 972.57 248.76 973.80 249.25 C 976.99 250.91 980.04 253.19 981.77 256.44 L 982.56 256.65 C 982.55 257.01 982.51 257.72 982.49 258.08 C 983.42 259.16 983.80 260.55 984.35 261.85 C 984.56 265.26 984.61 268.69 984.25 272.10 C 983.86 273.10 983.53 274.12 983.26 275.15 C 982.72 276.43 982.44 277.86 981.48 278.91 C 981.46 279.20 981.44 279.78 981.42 280.07 C 980.62 281.17 979.89 282.30 979.29 283.51 L 978.52 283.69 C 978.51 284.05 978.48 284.76 978.46 285.12 C 976.96 286.74 975.55 288.45 974.24 290.23 C 972.13 292.85 969.68 295.16 967.27 297.49 L 966.79 297.57 C 966.47 297.85 965.83 298.43 965.51 298.72 L 965.37 299.18 C 963.47 300.67 961.67 302.27 959.79 303.78 C 958.25 304.92 956.74 306.10 955.23 307.28 C 951.63 309.75 948.01 312.20 944.19 314.30 C 942.66 315.04 941.18 315.86 939.74 316.73 C 937.23 318.00 934.65 319.08 932.15 320.33 C 930.03 321.13 927.94 321.99 925.85 322.81 C 918.71 325.30 911.22 327.72 903.57 326.49 C 903.51 325.55 903.41 323.67 903.35 322.73 C 905.68 319.12 910.21 319.56 913.90 318.92 C 915.59 318.67 917.30 318.42 918.95 317.90 C 920.60 317.63 922.34 317.54 923.94 316.92 C 925.67 316.37 927.41 315.84 929.16 315.30 C 930.16 314.94 931.18 314.59 932.21 314.28 C 934.50 313.26 936.79 312.23 939.11 311.26 C 939.99 310.73 940.88 310.20 941.79 309.67 C 942.64 309.24 943.51 308.80 944.39 308.36 C 945.18 307.82 945.98 307.27 946.79 306.73 C 947.59 306.25 948.40 305.76 949.22 305.28 C 950.72 304.09 952.22 302.90 953.78 301.77 C 957.41 298.70 960.96 295.41 963.75 291.54 L 964.18 291.34 C 965.11 289.81 966.21 288.39 967.44 287.07 C 967.45 286.71 967.47 285.99 967.48 285.62 L 968.28 285.49 C 968.86 284.25 969.61 283.11 970.48 282.05 C 970.47 281.70 970.44 280.99 970.42 280.63 L 971.29 280.45 C 972.12 278.51 973.39 276.73 973.70 274.60 L 974.35 274.48 C 974.50 272.99 974.74 271.52 975.27 270.12 C 975.50 267.38 975.45 264.63 975.29 261.89 C 974.75 260.65 974.28 259.42 973.81 258.18 C 969.87 252.13 961.41 251.45 955.01 253.12 C 953.62 253.35 952.26 253.56 950.89 253.80 C 949.88 254.19 948.86 254.53 947.83 254.83 C 946.58 255.28 945.34 255.75 944.14 256.28 C 942.49 256.88 940.88 257.55 939.31 258.29 C 937.95 258.96 936.60 259.62 935.26 260.28 C 933.74 261.08 932.25 261.91 930.76 262.74 C 930.29 263.00 929.34 263.52 928.87 263.78 C 927.24 264.84 925.58 265.85 923.89 266.82 C 921.53 268.47 919.18 270.11 916.82 271.75 C 914.94 273.22 913.10 274.75 911.22 276.21 C 908.80 278.10 906.65 280.31 904.31 282.29 C 904.04 282.58 903.51 283.17 903.24 283.46 L 902.45 283.42 L 902.52 284.51 L 901.44 284.40 L 901.35 285.15 C 900.58 285.79 899.82 286.44 899.08 287.09 C 897.67 288.41 896.33 289.80 895.16 291.33 L 894.44 291.44 L 894.47 292.49 L 893.73 292.50 C 893.42 292.81 892.80 293.45 892.49 293.77 L 892.60 294.55 L 891.81 294.59 C 889.83 297.29 887.33 299.56 885.16 302.10 C 884.95 302.46 884.53 303.18 884.32 303.53 L 883.84 303.66 C 882.70 305.22 881.44 306.68 880.28 308.22 C 879.10 309.75 877.89 311.26 876.76 312.82 C 875.49 314.61 874.20 316.40 873.19 318.36 L 872.42 318.48 L 872.62 319.60 L 871.47 319.67 C 871.50 320.10 871.55 320.96 871.57 321.39 L 870.66 321.59 C 870.22 322.56 869.79 323.54 869.37 324.53 L 868.41 324.64 C 868.46 325.08 868.57 325.95 868.62 326.39 L 867.42 326.60 C 867.45 327.04 867.52 327.92 867.55 328.36 L 866.67 328.51 C 865.31 331.86 863.24 334.88 862.21 338.36 L 861.31 338.60 C 861.40 339.05 861.58 339.95 861.66 340.40 L 860.73 340.57 C 860.35 342.13 859.80 343.63 859.15 345.10 C 858.72 346.17 858.43 347.29 858.30 348.44 L 857.65 348.51 C 857.48 349.67 857.21 350.80 856.86 351.92 C 856.60 352.98 856.20 353.97 855.66 354.91 C 855.55 356.09 855.47 357.28 855.43 358.47 L 854.58 358.53 C 854.38 361.28 854.58 364.14 853.65 366.79 C 853.51 369.25 853.48 371.72 853.63 374.19 C 854.79 376.28 853.70 379.26 855.57 380.91 C 855.51 381.28 855.40 382.02 855.34 382.39 L 856.57 382.62 C 856.52 383.07 856.40 383.96 856.34 384.41 L 857.31 384.53 C 857.75 385.50 858.21 386.47 858.67 387.45 L 859.58 387.45 L 859.51 388.22 C 859.81 388.54 860.41 389.18 860.71 389.51 L 861.47 389.52 L 861.44 390.59 L 862.51 390.48 L 862.59 391.26 C 864.04 392.22 865.47 393.22 866.90 394.24 C 868.93 395.21 871.00 396.11 873.14 396.87 C 874.73 397.30 876.32 397.72 877.90 398.28 C 884.57 399.02 891.31 398.75 898.01 398.70 C 900.97 398.56 904.03 398.78 906.88 397.79 C 908.55 397.55 910.25 397.35 911.91 396.97 C 913.27 396.64 914.67 396.35 916.04 395.98 C 918.68 395.44 921.28 394.71 923.84 393.86 C 924.86 393.55 925.88 393.24 926.90 392.92 C 927.90 392.57 928.90 392.21 929.91 391.85 C 931.31 391.31 932.72 390.79 934.16 390.32 C 935.39 389.80 936.64 389.29 937.89 388.75 C 941.84 387.18 945.64 385.26 949.42 383.31 C 950.62 382.58 951.86 381.90 953.14 381.27 C 954.99 380.06 956.85 378.88 958.74 377.73 C 960.09 376.74 961.42 375.73 962.79 374.75 C 964.48 373.48 966.10 372.10 967.71 370.72 C 970.99 368.05 974.03 365.07 976.78 361.85 C 977.02 361.57 977.50 361.00 977.74 360.71 C 978.61 359.48 979.53 358.28 980.51 357.13 C 980.50 356.76 980.48 356.01 980.46 355.64 L 981.29 355.49 C 981.84 354.25 982.49 353.04 983.33 351.96 C 983.36 351.61 983.42 350.91 983.45 350.56 L 984.29 350.38 C 984.74 349.50 985.20 348.62 985.68 347.76 C 986.59 346.61 987.47 345.44 988.24 344.19 C 989.70 342.29 991.37 340.56 992.84 338.66 L 993.55 338.55 L 993.43 337.48 L 994.20 337.46 C 994.51 337.14 995.14 336.51 995.45 336.20 L 995.45 335.45 L 996.52 335.53 L 996.56 334.80 C 996.87 334.49 997.50 333.88 997.81 333.57 L 998.30 333.48 C 1000.48 331.12 1002.95 329.04 1005.79 327.51 C 1008.71 327.02 1011.64 327.44 1014.34 328.69 L 1014.53 329.23 C 1014.84 329.56 1015.44 330.22 1015.75 330.55 L 1016.33 330.65 C 1016.66 331.24 1017.31 332.43 1017.64 333.02 C 1016.64 336.40 1013.14 337.59 1010.68 339.65 C 1007.57 342.41 1004.60 345.32 1001.86 348.44 C 1001.42 348.89 1000.99 349.35 1000.56 349.80 L 1000.50 350.28 C 999.61 351.21 998.73 352.15 997.87 353.09 C 990.90 360.32 987.30 370.21 985.77 379.98 C 984.96 383.59 987.79 386.81 991.05 387.88 C 995.47 388.39 1000.05 386.64 1003.67 384.27 L 1003.92 384.00 C 1010.13 378.13 1016.36 372.22 1021.83 365.65 L 1022.49 365.60 C 1022.50 365.30 1022.52 364.71 1022.53 364.41 L 1023.18 364.36 C 1024.75 362.26 1026.57 360.34 1028.32 358.37 C 1028.55 358.06 1029.00 357.44 1029.22 357.14 C 1030.45 355.65 1031.68 354.16 1032.81 352.59 L 1033.21 352.38 C 1034.35 350.81 1035.57 349.30 1036.76 347.77 C 1038.07 346.09 1039.43 344.44 1040.75 342.75 C 1041.90 341.24 1043.07 339.75 1044.23 338.24 C 1045.39 336.74 1046.58 335.26 1047.73 333.74 C 1048.88 332.22 1050.07 330.74 1051.27 329.25 C 1052.39 327.72 1053.58 326.24 1054.70 324.71 C 1057.43 319.89 1063.55 319.50 1068.19 321.62 C 1068.67 321.91 1069.63 322.50 1070.12 322.79 C 1070.72 323.06 1071.92 323.60 1072.52 323.87 C 1073.25 328.29 1070.28 332.09 1068.53 335.91 C 1068.53 336.28 1068.54 337.01 1068.55 337.37 L 1067.41 337.62 C 1067.44 337.99 1067.51 338.73 1067.54 339.10 C 1066.15 340.85 1065.74 343.11 1064.50 344.93 C 1064.52 345.30 1064.56 346.02 1064.57 346.39 L 1063.39 346.60 C 1063.41 346.97 1063.45 347.71 1063.48 348.08 C 1063.18 348.60 1062.59 349.63 1062.30 350.15 C 1061.47 352.13 1060.58 354.08 1059.56 355.96 C 1059.58 356.32 1059.60 357.05 1059.62 357.41 L 1058.74 357.60 C 1057.92 360.14 1056.98 362.70 1055.47 364.92 C 1055.51 365.29 1055.58 366.03 1055.61 366.40 L 1054.71 366.64 C 1053.95 369.19 1052.86 371.64 1051.48 373.92 C 1051.50 374.28 1051.53 375.01 1051.55 375.38 L 1050.40 375.63 C 1050.46 376.07 1050.57 376.97 1050.63 377.41 L 1049.71 377.61 C 1048.94 380.16 1047.95 382.68 1046.45 384.90 C 1046.48 385.27 1046.54 386.01 1046.56 386.38 L 1045.69 386.61 C 1045.21 388.03 1044.73 389.45 1044.27 390.88 C 1045.69 390.67 1047.03 390.12 1048.26 389.33 C 1049.54 388.24 1050.89 387.21 1052.30 386.25 C 1055.99 383.31 1059.66 380.33 1063.31 377.32 C 1065.71 375.32 1067.86 373.03 1070.38 371.17 L 1070.47 370.44 L 1071.53 370.55 L 1071.56 369.80 C 1071.87 369.49 1072.48 368.87 1072.79 368.56 L 1073.53 368.57 L 1073.62 367.80 C 1075.54 366.35 1077.22 364.63 1078.79 362.81 C 1079.03 362.48 1079.50 361.83 1079.73 361.50 L 1080.52 361.51 L 1080.46 360.45 L 1081.18 360.39 C 1084.46 356.24 1087.72 352.05 1091.43 348.27 L 1091.51 347.50 L 1092.24 347.44 C 1092.54 347.13 1093.14 346.52 1093.44 346.22 L 1093.47 345.47 L 1094.50 345.50 L 1094.48 344.48 L 1095.24 344.45 C 1095.51 344.15 1096.04 343.54 1096.30 343.24 C 1099.79 340.05 1103.48 337.09 1107.25 334.23 C 1110.36 331.99 1113.51 329.82 1116.74 327.74 C 1117.81 327.11 1118.88 326.47 1119.97 325.83 C 1121.91 324.77 1123.90 323.80 1125.87 322.77 C 1128.46 321.57 1131.20 320.73 1133.87 319.71 C 1138.63 319.18 1143.70 318.65 1148.22 320.66 C 1149.82 321.82 1151.24 323.20 1152.44 324.80 C 1152.43 327.19 1152.75 329.65 1151.94 331.96 C 1151.31 333.38 1150.61 334.77 1149.67 336.01 C 1149.62 336.29 1149.53 336.86 1149.48 337.14 C 1149.17 337.51 1148.54 338.24 1148.22 338.61 C 1147.53 338.69 1146.14 338.85 1145.44 338.93 C 1145.26 336.63 1145.13 334.20 1146.28 332.10 C 1146.28 331.55 1146.29 330.44 1146.30 329.89 C 1146.04 329.37 1145.52 328.33 1145.26 327.81 C 1144.75 327.52 1143.72 326.94 1143.21 326.65 C 1142.36 326.67 1140.67 326.70 1139.82 326.72 C 1137.11 327.61 1134.44 328.61 1131.84 329.76 C 1129.98 330.95 1128.09 332.09 1126.22 333.24 C 1124.88 334.24 1123.55 335.25 1122.20 336.22 C 1120.34 337.68 1118.59 339.27 1116.77 340.76 C 1112.75 344.06 1109.08 347.77 1105.67 351.68 C 1104.17 353.58 1102.54 355.37 1101.23 357.41 L 1100.80 357.63 C 1100.13 358.73 1099.45 359.81 1098.78 360.90 C 1098.49 361.35 1097.90 362.24 1097.61 362.69 C 1097.18 363.59 1096.75 364.50 1096.35 365.41 L 1095.51 365.66 C 1095.51 366.02 1095.52 366.76 1095.52 367.12 C 1094.69 368.31 1094.13 369.64 1093.51 370.93 C 1093.50 371.21 1093.47 371.77 1093.46 372.04 C 1092.36 373.24 1092.54 374.95 1092.33 376.44 L 1091.54 376.52 C 1091.41 379.41 1091.36 382.31 1091.51 385.21 C 1092.87 388.33 1095.45 391.11 1098.99 391.55 C 1103.27 392.05 1107.65 391.72 1111.90 390.96 C 1114.61 390.49 1117.27 389.75 1119.85 388.77 C 1123.71 387.58 1127.38 385.89 1131.06 384.22 C 1131.92 383.70 1132.81 383.19 1133.71 382.69 C 1135.61 381.66 1137.44 380.48 1139.24 379.27 C 1140.75 378.11 1142.25 376.93 1143.78 375.78 C 1148.66 371.68 1153.11 367.07 1157.31 362.28 C 1158.87 360.17 1160.73 358.30 1162.31 356.20 C 1162.60 355.67 1163.18 354.62 1163.47 354.10 C 1163.47 353.80 1163.47 353.20 1163.47 352.90 C 1164.21 352.03 1164.64 351.01 1164.76 349.84 C 1165.49 348.21 1166.17 346.55 1166.65 344.82 C 1167.16 343.53 1167.70 342.25 1168.45 341.07 C 1168.48 340.79 1168.54 340.22 1168.56 339.94 C 1169.57 338.01 1170.39 336.00 1171.40 334.07 C 1171.43 333.78 1171.51 333.19 1171.55 332.90 C 1173.18 329.92 1174.76 326.87 1175.78 323.61 L 1176.63 323.41 C 1176.60 323.03 1176.55 322.28 1176.52 321.90 C 1177.17 320.97 1177.84 320.05 1178.52 319.13 C 1178.49 318.74 1178.42 317.98 1178.39 317.59 L 1179.35 317.40 C 1179.60 315.77 1180.28 314.27 1181.46 313.10 C 1181.44 312.72 1181.41 311.96 1181.39 311.58 L 1182.32 311.38 C 1182.73 310.11 1183.20 308.87 1183.64 307.62 L 1184.58 307.38 C 1184.56 307.01 1184.52 306.26 1184.50 305.89 C 1185.61 304.80 1186.24 303.38 1186.78 301.94 C 1188.02 300.00 1188.89 297.83 1190.36 296.03 C 1190.41 295.73 1190.49 295.15 1190.54 294.85 C 1191.15 294.00 1191.76 293.13 1192.36 292.24 C 1192.77 291.40 1193.20 290.56 1193.66 289.74 C 1194.20 288.88 1194.75 288.02 1195.32 287.16 C 1195.75 286.32 1196.20 285.48 1196.65 284.65 C 1197.20 283.87 1197.76 283.08 1198.33 282.30 C 1198.79 281.48 1199.26 280.65 1199.75 279.84 C 1200.42 278.83 1201.10 277.83 1201.76 276.81 C 1202.74 275.46 1203.75 274.13 1204.73 272.76 C 1205.86 271.22 1207.04 269.70 1208.19 268.17 C 1209.40 266.71 1210.63 265.26 1211.78 263.74 C 1216.51 258.01 1221.87 252.65 1228.11 248.55 M 1243.16 251.51 C 1242.26 251.78 1241.41 252.14 1240.60 252.58 C 1233.26 257.40 1226.89 263.60 1221.27 270.30 C 1219.74 272.11 1218.17 273.87 1216.74 275.75 C 1214.92 278.23 1212.98 280.63 1211.28 283.20 C 1210.43 284.38 1209.58 285.57 1208.75 286.76 C 1208.23 287.56 1207.72 288.36 1207.22 289.16 C 1206.54 290.25 1205.89 291.35 1205.29 292.48 L 1204.75 292.69 C 1203.94 294.59 1202.93 296.40 1201.50 297.90 C 1201.48 298.18 1201.44 298.74 1201.42 299.02 C 1200.58 300.09 1199.83 301.22 1199.26 302.45 L 1198.75 302.70 C 1198.27 303.85 1197.77 305.00 1197.28 306.14 C 1196.72 306.99 1196.18 307.84 1195.66 308.71 C 1194.79 310.49 1193.84 312.25 1192.79 313.92 C 1192.24 315.37 1191.59 316.79 1190.52 317.91 C 1190.54 318.29 1190.58 319.03 1190.60 319.40 L 1189.67 319.62 C 1189.23 320.89 1188.77 322.14 1188.36 323.41 L 1187.41 323.62 C 1187.47 324.06 1187.57 324.95 1187.62 325.39 L 1186.69 325.64 C 1186.30 326.85 1185.82 328.01 1185.35 329.18 C 1184.14 331.50 1182.95 333.85 1182.25 336.37 L 1181.38 336.60 C 1181.41 336.97 1181.45 337.70 1181.48 338.07 C 1180.32 339.65 1179.73 341.54 1179.27 343.42 L 1178.68 343.55 C 1178.21 345.32 1177.44 347.09 1177.82 348.96 C 1177.97 348.64 1178.27 347.99 1178.42 347.67 C 1179.77 347.01 1181.07 346.20 1182.32 345.33 C 1184.28 343.63 1186.22 341.91 1188.23 340.25 C 1193.22 335.95 1197.90 331.26 1202.24 326.30 C 1202.55 326.03 1203.15 325.51 1203.46 325.24 L 1203.56 324.71 C 1205.86 322.30 1208.18 319.88 1210.25 317.25 C 1211.84 315.18 1213.59 313.24 1215.25 311.22 C 1216.38 309.72 1217.58 308.27 1218.74 306.78 C 1219.90 305.25 1221.11 303.75 1222.28 302.21 C 1223.24 300.85 1224.27 299.53 1225.29 298.21 C 1226.24 296.85 1227.24 295.52 1228.25 294.19 C 1229.90 291.87 1231.52 289.52 1233.23 287.22 C 1233.85 286.20 1234.52 285.18 1235.19 284.16 C 1235.84 283.16 1236.53 282.17 1237.23 281.18 C 1238.18 279.73 1239.01 278.22 1239.76 276.65 L 1240.27 276.49 C 1240.86 275.29 1241.54 274.11 1242.34 273.02 C 1242.41 272.75 1242.54 272.20 1242.61 271.92 C 1243.57 270.63 1244.45 269.28 1245.14 267.81 C 1247.52 264.76 1249.04 261.11 1250.05 257.39 C 1250.86 255.22 1249.23 253.29 1248.56 251.34 C 1247.43 251.13 1246.33 250.95 1245.24 250.76 C 1244.72 250.95 1243.68 251.33 1243.16 251.51 M 1016.37 415.35 C 1013.67 415.86 1011.96 418.31 1009.76 419.77 C 1006.64 422.03 1003.70 424.51 1000.62 426.81 L 1000.37 427.19 C 998.78 428.31 997.28 429.54 995.78 430.77 C 993.75 432.41 991.80 434.14 989.76 435.76 C 986.76 438.15 984.04 440.85 981.26 443.47 L 980.79 443.54 C 980.47 443.84 979.83 444.46 979.51 444.76 L 979.51 445.50 L 978.44 445.43 L 978.42 446.17 C 978.11 446.49 977.49 447.11 977.18 447.42 L 976.44 447.42 L 976.46 448.47 L 975.41 448.45 L 975.44 449.19 C 975.14 449.51 974.53 450.16 974.22 450.49 L 973.47 450.46 L 973.49 451.27 C 971.91 452.85 970.38 454.49 969.24 456.41 L 968.70 456.58 C 968.24 457.56 967.80 458.54 967.36 459.52 L 966.41 459.65 C 966.46 460.09 966.56 460.97 966.61 461.41 L 965.62 461.59 C 963.88 466.47 963.59 471.94 964.97 476.95 C 966.84 478.89 969.42 479.82 972.12 479.41 C 973.75 478.64 975.43 477.96 977.11 477.29 C 978.13 476.60 979.18 475.94 980.23 475.29 C 984.49 471.90 988.34 467.98 991.73 463.72 C 992.58 462.55 993.42 461.39 994.27 460.22 C 995.52 458.43 996.92 456.71 997.75 454.66 L 998.56 454.54 L 998.49 453.68 C 999.14 452.81 999.81 451.95 1000.50 451.11 C 1000.49 450.75 1000.48 450.02 1000.48 449.66 L 1001.33 449.51 C 1004.08 444.05 1006.56 438.44 1009.52 433.10 C 1009.49 432.73 1009.45 431.99 1009.42 431.62 L 1010.63 431.42 C 1010.58 430.98 1010.47 430.10 1010.42 429.66 L 1011.60 429.37 C 1011.54 428.93 1011.41 428.03 1011.34 427.59 L 1012.55 427.38 C 1012.53 427.01 1012.50 426.26 1012.48 425.89 C 1014.29 423.03 1015.58 419.86 1016.74 416.69 L 1017.58 416.50 C 1017.47 415.84 1017.26 414.51 1017.15 413.85 C 1016.96 414.23 1016.57 414.97 1016.37 415.35 Z" />
<path fill="#ffffff" opacity="1.00" d=" M 610.89 248.82 C 612.60 248.64 614.39 248.58 615.98 247.83 C 620.23 247.19 624.57 247.62 628.79 246.75 C 630.59 246.72 632.40 246.72 634.21 246.75 C 637.78 247.50 641.46 247.23 645.06 247.79 C 646.07 248.20 647.12 248.53 648.19 248.78 C 649.38 249.24 650.58 249.72 651.77 250.22 C 653.00 251.05 654.21 251.89 655.45 252.72 L 655.43 253.60 L 656.55 253.63 C 656.55 253.99 656.56 254.69 656.56 255.05 C 658.28 256.43 657.47 259.03 657.71 260.97 C 657.38 262.91 658.16 265.54 656.41 266.91 C 656.46 267.28 656.57 268.01 656.62 268.38 L 655.41 268.61 C 655.48 269.06 655.61 269.97 655.68 270.42 L 654.43 270.61 C 654.47 271.05 654.55 271.94 654.59 272.38 L 653.63 272.52 C 653.22 273.51 652.81 274.50 652.41 275.49 L 651.83 275.64 C 650.37 278.20 648.05 280.04 645.86 281.93 C 644.45 282.68 642.82 282.64 641.28 282.76 C 641.34 282.20 641.46 281.08 641.52 280.52 C 644.03 277.97 646.85 275.66 648.84 272.64 L 649.61 272.54 L 649.37 271.45 C 649.60 271.41 650.06 271.32 650.29 271.27 C 651.54 268.52 651.67 265.53 651.47 262.56 L 650.72 262.38 C 648.94 257.75 643.35 256.78 639.08 255.79 C 633.44 255.30 627.59 254.82 622.05 256.15 C 618.26 256.40 614.54 257.10 610.82 257.82 C 607.87 258.51 604.97 259.36 602.00 259.92 C 600.70 260.36 599.40 260.77 598.13 261.21 C 595.69 262.04 593.26 262.89 590.86 263.78 C 588.60 264.90 586.26 265.83 583.95 266.82 C 582.99 267.34 582.03 267.85 581.07 268.36 C 578.89 269.29 576.91 270.60 574.86 271.78 C 573.81 272.43 572.77 273.09 571.72 273.74 C 570.04 275.05 568.41 276.41 566.77 277.76 C 565.87 278.88 564.96 279.99 563.98 281.05 C 563.11 283.26 563.02 285.78 564.05 287.96 C 565.26 289.39 566.54 290.79 568.16 291.79 C 568.96 292.29 569.76 292.81 570.56 293.35 C 573.03 294.56 575.53 295.75 578.10 296.77 C 579.73 297.50 581.40 298.15 583.10 298.73 C 584.34 299.26 585.60 299.76 586.85 300.29 C 589.99 301.33 593.01 302.69 596.15 303.75 C 597.38 304.24 598.62 304.73 599.85 305.27 C 601.29 305.77 602.72 306.31 604.16 306.84 C 606.07 307.64 608.00 308.42 609.91 309.24 C 612.26 310.20 614.60 311.18 616.92 312.24 C 618.28 312.80 619.63 313.45 620.92 314.21 C 621.98 314.72 623.04 315.25 624.09 315.79 C 625.12 316.47 626.17 317.13 627.24 317.76 C 628.37 318.59 629.48 319.46 630.58 320.35 L 631.40 320.58 C 635.00 324.05 639.17 327.09 641.75 331.48 L 642.54 331.66 C 642.51 332.03 642.44 332.77 642.41 333.14 C 643.26 333.89 643.76 334.86 643.91 336.06 C 645.14 340.18 645.15 344.82 643.91 348.94 C 643.55 349.91 643.16 350.87 642.74 351.81 C 642.24 352.61 641.76 353.42 641.29 354.23 C 641.03 354.77 640.51 355.84 640.25 356.38 L 639.38 356.43 L 639.60 357.52 L 638.86 357.67 C 637.67 359.26 636.40 360.79 635.18 362.36 L 634.69 362.46 C 634.44 362.78 633.94 363.41 633.69 363.73 C 631.34 365.71 629.19 367.91 626.75 369.78 C 625.25 370.96 623.75 372.14 622.21 373.27 C 621.04 374.07 619.89 374.91 618.74 375.73 C 617.72 376.38 616.71 377.04 615.71 377.70 C 614.06 378.74 612.40 379.75 610.72 380.72 C 608.83 381.85 606.91 382.91 604.93 383.85 C 603.35 384.69 601.77 385.51 600.19 386.32 C 598.39 387.08 596.63 387.90 594.88 388.74 C 593.23 389.51 591.55 390.17 589.85 390.79 C 587.26 391.96 584.60 392.98 581.88 393.82 C 580.62 394.29 579.38 394.78 578.17 395.34 C 577.60 395.46 576.48 395.69 575.91 395.80 C 574.66 396.33 573.37 396.79 572.11 397.26 C 571.55 397.38 570.43 397.62 569.87 397.74 C 567.28 398.74 564.51 399.15 561.84 399.85 C 559.63 400.33 557.41 400.69 555.21 401.19 C 551.27 402.09 547.15 401.26 543.25 402.33 C 538.82 402.71 534.48 401.64 530.07 401.68 C 527.73 401.61 525.33 401.65 523.12 400.79 C 522.03 400.60 520.96 400.42 519.89 400.25 C 518.62 399.75 517.35 399.30 516.08 398.86 C 513.96 398.07 511.90 397.10 510.02 395.86 C 505.87 392.42 502.36 387.60 502.33 382.01 C 502.18 372.66 504.58 362.84 511.05 355.79 C 514.12 352.04 517.76 348.79 521.69 345.96 C 525.64 343.07 529.75 340.42 534.03 338.05 C 533.86 337.94 533.51 337.70 533.34 337.58 C 536.07 337.46 538.37 335.79 540.82 334.75 C 542.25 334.25 543.67 333.70 545.10 333.19 C 546.38 332.73 547.66 332.29 548.93 331.81 C 550.59 331.55 552.25 331.29 553.87 330.78 C 559.70 329.34 565.75 329.37 571.73 329.67 C 571.62 330.31 571.41 331.59 571.31 332.23 C 568.87 332.77 566.36 332.69 563.89 332.82 C 559.78 333.48 555.75 334.45 551.80 335.73 C 548.55 337.24 545.03 338.12 541.91 339.87 C 537.40 342.76 532.61 345.36 528.84 349.23 C 528.52 349.33 527.89 349.53 527.57 349.63 L 527.58 350.58 L 526.49 350.46 L 526.48 351.22 C 526.16 351.53 525.52 352.14 525.20 352.45 L 524.44 352.42 L 524.51 353.50 L 523.42 353.43 L 523.53 354.53 L 522.75 354.49 C 522.45 354.82 521.84 355.48 521.54 355.81 L 521.61 356.60 L 520.71 356.66 C 520.41 357.55 519.96 358.34 519.34 359.05 C 516.48 362.65 515.09 367.15 513.98 371.54 C 513.06 374.83 514.77 378.05 516.31 380.86 C 518.87 385.29 523.65 387.71 528.22 389.58 C 547.99 393.50 568.41 390.37 587.45 384.48 C 590.33 382.44 593.98 382.26 597.03 380.59 C 608.37 375.39 620.65 370.66 629.27 361.29 L 629.72 360.74 C 630.84 359.45 631.94 358.12 632.80 356.63 L 633.34 356.46 C 633.77 355.46 634.21 354.47 634.65 353.49 L 635.61 353.38 C 635.58 353.02 635.51 352.31 635.47 351.95 C 637.39 348.58 637.35 343.41 635.46 340.07 C 635.49 339.77 635.53 339.18 635.55 338.88 C 633.27 336.03 630.80 333.30 627.75 331.26 C 625.84 330.17 623.92 329.10 621.92 328.23 C 619.61 327.13 617.24 326.19 614.87 325.27 C 613.24 324.49 611.58 323.82 609.89 323.23 C 608.24 322.53 606.59 321.86 604.91 321.27 C 603.63 320.79 602.37 320.33 601.12 319.81 C 599.69 319.30 598.28 318.76 596.86 318.26 C 595.85 317.91 594.84 317.57 593.84 317.25 C 592.61 316.73 591.37 316.25 590.14 315.78 C 588.12 315.20 586.12 314.53 584.15 313.81 C 583.14 313.47 582.15 313.13 581.17 312.79 C 579.70 312.30 578.25 311.77 576.80 311.30 C 575.15 310.61 573.50 309.96 571.84 309.35 C 569.15 308.07 566.51 306.69 563.91 305.26 C 560.30 302.83 556.45 300.39 554.23 296.52 L 553.43 296.38 C 553.46 296.01 553.51 295.27 553.54 294.90 C 552.48 293.89 552.21 292.41 551.66 291.14 C 551.52 288.72 551.52 286.29 551.67 283.86 C 552.21 282.57 552.47 281.10 553.46 280.04 C 553.44 279.68 553.40 278.95 553.38 278.59 L 554.59 278.46 C 554.57 278.02 554.52 277.13 554.50 276.68 L 555.35 276.57 C 555.56 276.21 555.98 275.50 556.19 275.15 C 558.02 272.98 560.02 270.96 562.29 269.26 C 563.77 268.07 565.24 266.87 566.77 265.73 C 567.58 265.24 568.39 264.74 569.20 264.24 C 571.45 262.74 573.87 261.53 576.26 260.27 C 577.86 259.57 579.48 258.86 581.08 258.15 C 582.74 257.45 584.44 256.82 586.16 256.25 C 587.37 255.74 588.61 255.29 589.87 254.85 C 590.88 254.52 591.89 254.17 592.89 253.79 C 593.45 253.66 594.58 253.41 595.15 253.29 C 596.38 252.74 597.65 252.31 598.95 251.90 C 600.27 251.61 601.60 251.29 602.88 250.80 C 603.95 250.60 605.03 250.42 606.12 250.23 C 607.68 249.68 609.28 249.26 610.89 248.82 Z" />
</g>
</svg>
