<?xml version="1.0" encoding="UTF-8" ?>
<!DOCTYPE svg PUBLIC "-//W3C//DTD SVG 1.1//EN" "http://www.w3.org/Graphics/SVG/1.1/DTD/svg11.dtd">
<svg width="1544pt" height="506pt" viewBox="0 0 1544 506" version="1.1" xmlns="http://www.w3.org/2000/svg">
<g id="#000000ff">
</g>
<g id="#32b2e6ff">
<path fill="#32b2e6" opacity="1.00" d=" M 241.04 34.59 C 254.72 30.66 268.88 28.80 283.03 27.57 C 321.98 25.46 362.41 31.18 396.84 50.40 C 417.70 62.52 436.08 79.28 449.10 99.66 C 452.85 105.34 456.00 112.23 453.92 119.14 C 451.51 129.04 441.46 136.60 431.19 135.23 C 425.17 134.07 418.80 134.06 412.97 136.11 C 402.55 139.73 393.30 146.00 384.75 152.85 C 367.30 167.23 353.34 185.77 344.21 206.45 C 336.59 223.19 331.75 241.54 332.57 260.03 C 333.78 278.66 340.33 297.17 352.35 311.60 C 357.53 318.06 364.02 323.35 370.80 328.05 C 374.20 330.50 378.26 331.90 381.50 334.57 C 383.47 336.19 383.39 338.84 383.52 341.16 C 382.28 343.20 380.74 345.61 378.07 345.77 C 373.96 346.52 370.76 343.49 367.45 341.65 C 352.90 332.84 340.67 320.25 332.25 305.48 C 323.54 289.86 318.90 271.90 319.40 254.00 C 319.21 238.81 323.21 223.92 328.36 209.75 C 336.69 187.86 349.40 167.53 366.21 151.15 C 375.71 142.22 385.83 133.67 397.64 127.95 C 393.68 122.41 386.95 118.70 380.03 119.44 C 367.88 120.15 358.94 130.19 347.09 131.98 C 345.39 132.31 343.67 132.47 341.96 132.68 C 325.28 147.06 313.31 166.40 305.71 186.94 C 299.74 203.05 296.37 220.09 295.44 237.22 C 294.01 239.06 292.48 241.19 289.93 241.44 C 285.74 242.41 281.49 238.20 282.31 233.99 C 282.98 214.11 287.85 194.49 295.23 176.06 C 302.40 158.68 312.71 142.53 325.86 129.06 C 322.64 127.05 319.53 124.83 317.02 121.95 C 316.09 121.07 314.90 119.34 313.44 120.37 C 310.04 122.58 307.29 125.70 303.72 127.70 C 299.55 130.45 294.65 131.66 289.80 132.57 C 287.59 132.72 286.47 134.79 285.28 136.36 C 274.24 152.27 266.60 170.48 262.24 189.31 C 261.06 191.87 259.13 194.57 256.00 194.57 C 251.62 195.25 247.46 190.54 248.84 186.27 C 253.05 169.50 259.27 153.18 267.91 138.17 C 268.66 136.81 269.62 135.58 270.66 134.42 C 261.41 136.50 254.43 143.48 247.92 149.92 C 234.90 163.09 228.34 180.97 224.08 198.63 C 223.00 203.24 221.61 207.80 221.25 212.54 C 229.22 212.30 237.25 212.19 245.18 213.19 C 252.24 214.03 259.23 217.80 262.82 224.10 C 265.94 228.85 266.36 234.94 264.96 240.33 C 262.44 248.01 255.91 253.23 249.59 257.77 C 252.43 267.81 249.14 279.38 241.46 286.45 C 238.79 289.22 235.37 291.02 232.30 293.25 C 232.35 294.55 232.79 295.78 233.20 297.01 C 233.89 301.77 233.58 306.58 233.34 311.37 C 232.25 313.46 230.82 315.64 228.38 316.26 C 224.66 316.91 219.88 314.22 220.29 310.01 C 220.44 304.65 220.82 298.85 217.77 294.12 C 216.06 291.98 215.96 289.08 216.65 286.53 C 218.76 283.35 222.80 282.63 225.94 280.88 C 231.17 278.37 235.85 273.83 236.84 267.90 C 238.45 262.18 234.04 256.71 235.56 251.00 C 240.21 245.67 248.69 244.15 251.49 237.06 C 253.10 232.72 250.22 228.02 245.89 226.89 C 230.92 224.42 215.40 225.50 200.93 230.07 C 181.18 236.50 163.75 249.64 151.75 266.55 C 149.98 269.04 148.77 272.46 145.40 273.15 C 140.38 274.77 135.68 268.63 137.76 264.02 C 140.15 259.24 143.54 255.02 147.01 250.98 C 157.32 238.39 170.81 228.54 185.53 221.71 C 192.46 218.41 199.94 216.59 207.23 214.29 C 207.35 212.56 207.46 210.83 207.75 209.12 C 211.03 193.15 215.18 177.21 222.36 162.50 C 229.98 148.44 240.89 136.21 253.99 127.04 C 259.34 124.05 264.99 121.33 271.09 120.35 C 277.13 119.10 283.35 120.05 289.43 119.19 C 296.55 117.83 301.56 112.25 307.07 108.04 C 310.28 105.54 313.56 101.71 318.11 102.66 C 321.53 103.47 322.46 107.10 324.10 109.71 C 329.29 118.62 342.01 121.92 350.90 116.72 C 356.79 113.42 362.60 109.84 369.16 108.00 C 383.94 102.79 402.29 108.60 409.85 122.71 C 416.28 120.95 423.06 119.92 429.70 121.12 C 431.80 121.39 434.02 121.91 436.11 121.25 C 437.95 120.39 439.21 118.73 440.60 117.31 C 440.49 114.97 441.11 112.35 439.71 110.28 C 429.46 92.58 414.67 77.65 397.64 66.42 C 382.63 56.45 365.58 49.81 348.03 45.91 C 332.54 42.94 316.85 40.36 301.03 40.58 C 285.59 40.31 270.17 42.02 255.04 44.99 C 240.66 48.33 226.09 51.40 212.57 57.50 C 180.34 70.44 152.58 92.96 130.76 119.75 C 118.01 135.59 106.89 152.86 98.54 171.43 C 91.92 188.03 83.64 203.96 74.25 219.16 C 63.26 236.33 50.55 252.72 34.52 265.49 C 30.62 268.82 23.68 265.15 24.22 260.04 C 23.59 256.08 27.52 254.11 30.03 251.97 C 43.50 240.24 54.24 225.77 63.76 210.75 C 71.76 197.42 79.22 183.69 84.87 169.19 C 70.54 180.81 55.08 191.02 38.89 199.84 C 35.38 201.70 31.03 204.29 27.13 201.98 C 22.71 199.37 23.31 191.93 28.16 190.11 C 52.10 177.51 74.39 161.68 93.69 142.70 C 99.72 136.77 105.91 130.87 110.62 123.80 C 124.05 105.18 139.72 88.01 157.98 74.03 C 182.26 54.90 210.77 41.04 241.04 34.59 Z" />
<path fill="#32b2e6" opacity="1.00" d=" M 431.54 171.95 C 432.11 166.86 439.40 164.29 443.04 167.93 C 445.66 169.88 444.56 173.49 444.62 176.26 C 442.95 177.66 441.31 179.57 438.94 179.54 C 434.88 179.88 430.95 176.08 431.54 171.95 Z" />
<path fill="#32b2e6" opacity="1.00" d=" M 384.08 215.07 C 390.24 211.29 398.01 210.33 404.91 212.50 C 416.77 216.40 424.55 229.77 421.91 242.00 C 420.26 249.67 414.89 256.45 407.62 259.52 C 400.27 262.81 391.12 262.27 384.51 257.53 C 378.17 253.44 374.18 246.40 372.77 239.10 C 371.49 229.76 376.40 220.28 384.08 215.07 M 388.32 229.43 C 382.10 237.40 391.28 250.90 400.99 247.91 C 404.56 247.15 406.81 244.10 408.43 241.07 C 408.73 236.95 409.17 232.20 406.01 228.99 C 401.73 223.39 392.29 223.57 388.32 229.43 Z" />
<path fill="#32b2e6" opacity="1.00" d=" M 489.54 233.08 C 488.66 222.90 497.86 213.49 507.96 213.59 C 516.46 213.36 524.55 219.92 526.30 228.22 C 526.68 230.83 526.48 233.49 526.35 236.12 C 524.42 243.62 517.65 249.65 509.94 250.51 C 499.89 251.68 489.91 243.23 489.54 233.08 M 506.34 227.45 C 502.27 228.44 502.16 234.98 505.66 236.72 C 507.87 238.35 510.90 237.05 512.48 235.13 C 512.83 233.15 513.11 230.92 512.16 229.06 C 510.79 227.35 508.39 226.83 506.34 227.45 Z" />
<path fill="#32b2e6" opacity="1.00" d=" M 1129.45 238.04 C 1131.52 243.05 1131.99 248.60 1131.11 253.94 C 1129.96 255.87 1131.19 259.57 1129.29 260.61 C 1129.12 260.53 1128.78 260.36 1128.61 260.28 C 1131.61 253.21 1130.94 245.36 1129.45 238.04 Z" />
<path fill="#32b2e6" opacity="1.00" d=" M 560.72 272.66 C 562.17 268.52 563.53 263.99 567.02 261.06 C 562.36 267.12 560.46 274.68 558.67 281.97 C 557.19 291.78 553.91 302.92 559.91 311.90 C 554.02 305.76 555.56 296.48 556.72 288.86 C 558.03 283.46 558.79 277.90 560.72 272.66 Z" />
<path fill="#32b2e6" opacity="1.00" d=" M 283.45 266.63 C 286.00 263.88 290.38 261.76 293.77 264.41 C 297.47 267.14 296.66 272.18 296.55 276.17 C 294.13 279.10 289.75 281.18 286.36 278.52 C 282.42 275.86 283.38 270.70 283.45 266.63 Z" />
<path fill="#32b2e6" opacity="1.00" d=" M 522.43 277.64 C 524.31 276.02 526.36 274.10 529.07 274.44 C 531.55 274.23 533.62 276.13 534.81 278.11 C 537.12 282.47 532.93 288.68 527.95 287.75 C 525.60 287.81 524.08 285.85 522.47 284.48 C 522.34 282.20 522.33 279.92 522.43 277.64 Z" />
<path fill="#32b2e6" opacity="1.00" d=" M 124.05 292.17 C 122.53 287.88 126.46 282.94 131.00 283.44 C 135.53 283.18 138.17 288.19 137.52 292.22 C 136.17 294.10 135.07 296.58 132.61 297.18 C 128.98 298.07 125.14 295.69 124.05 292.17 Z" />
<path fill="#32b2e6" opacity="1.00" d=" M 244.81 306.19 C 243.82 302.08 247.95 298.06 251.99 298.39 C 255.60 298.28 257.84 301.94 258.52 305.07 C 261.95 317.71 267.48 329.70 274.22 340.90 C 283.33 355.40 295.36 368.59 310.83 376.36 C 321.35 374.08 331.86 371.66 342.08 368.27 C 318.29 355.21 302.38 331.56 292.60 306.83 C 291.84 304.03 292.36 300.63 295.10 299.09 C 298.28 296.48 303.47 298.01 305.07 301.69 C 312.03 319.21 321.99 336.10 336.65 348.28 C 343.28 353.96 351.07 358.23 359.29 361.13 C 361.86 362.33 364.34 360.40 366.69 359.54 C 388.61 350.26 409.49 338.16 427.53 322.56 C 432.89 318.19 437.57 312.87 443.78 309.66 C 452.24 305.49 462.48 305.77 470.93 309.82 C 499.38 324.96 527.96 340.06 558.00 351.85 C 562.84 353.87 568.15 352.92 573.13 353.97 C 577.06 355.24 576.87 359.78 576.57 363.15 C 575.27 364.49 574.05 366.22 572.05 366.46 C 563.14 367.86 554.21 365.17 546.11 361.63 C 528.37 354.88 511.50 346.15 494.50 337.77 C 484.68 332.43 474.68 327.46 464.93 322.00 C 458.05 318.20 449.37 320.61 444.02 325.94 C 411.76 356.16 370.78 376.03 327.96 386.14 C 323.30 387.27 318.54 387.96 313.91 389.21 C 330.75 397.63 347.85 405.52 365.43 412.28 C 370.00 413.87 374.28 416.30 379.01 417.39 C 380.20 409.65 385.33 403.12 390.79 397.77 C 398.00 391.29 407.30 386.88 417.04 386.22 C 427.75 384.40 437.97 389.08 448.13 391.71 C 456.80 394.04 465.27 397.25 474.09 398.88 C 470.37 395.61 466.41 392.60 462.50 389.56 C 458.72 386.58 454.34 384.01 451.97 379.66 C 448.97 375.00 448.89 369.22 449.55 363.90 C 451.52 354.88 460.05 348.28 469.09 347.63 C 474.11 347.35 478.99 349.11 483.19 351.73 C 496.65 358.93 510.96 364.41 525.39 369.35 C 528.15 370.34 530.91 371.44 533.84 371.86 C 527.94 375.90 525.01 382.73 521.53 388.72 C 518.92 392.96 518.29 398.47 520.73 402.93 C 517.90 400.17 517.74 395.65 519.37 392.23 C 520.72 389.04 522.56 386.09 523.95 382.92 C 508.91 378.10 494.15 372.35 480.06 365.18 C 476.81 363.60 473.77 360.95 469.93 361.22 C 465.93 361.32 462.27 364.91 462.52 368.98 C 462.13 372.10 464.86 374.22 466.95 376.03 C 480.51 386.34 493.87 396.93 506.73 408.10 C 508.76 409.95 511.71 411.84 511.53 414.97 C 512.34 419.33 507.65 423.05 503.55 422.23 C 490.81 418.62 478.11 414.80 465.43 410.96 C 454.78 408.36 444.45 404.63 433.83 401.90 C 425.86 398.91 416.72 398.64 408.91 402.27 C 400.37 405.81 393.64 413.30 391.33 422.29 C 442.07 439.52 494.48 451.89 547.56 459.20 C 549.43 459.71 551.23 460.87 552.22 462.58 C 552.78 464.50 552.48 466.55 552.51 468.53 C 550.64 470.73 548.06 472.70 544.99 472.29 C 506.87 466.96 469.11 459.03 432.00 448.80 C 392.45 437.57 353.49 423.86 316.53 405.73 C 281.71 388.73 248.15 368.59 218.75 343.19 C 212.90 338.75 203.72 339.25 198.45 344.40 C 171.40 370.22 139.85 391.38 105.51 406.22 C 82.38 416.59 57.99 424.18 33.01 428.52 C 31.08 428.65 28.96 428.82 27.22 427.79 C 23.37 425.86 22.40 419.62 26.06 417.01 C 28.95 414.94 32.70 414.96 36.06 414.31 C 62.95 408.94 88.99 399.67 113.55 387.53 C 138.49 375.50 161.59 359.71 182.16 341.20 C 186.58 337.61 190.20 333.03 195.25 330.26 C 203.71 325.63 214.67 325.13 223.16 330.01 C 230.35 333.75 235.84 339.85 242.40 344.50 C 254.56 354.01 267.41 362.61 280.61 370.61 C 263.13 352.90 251.26 330.11 244.81 306.19 Z" />
<path fill="#32b2e6" opacity="1.00" d=" M 795.22 313.05 C 798.94 316.92 798.34 322.52 797.26 327.32 C 795.45 331.01 794.02 335.10 790.90 337.94 C 793.39 333.92 796.46 329.89 796.79 325.00 C 797.15 320.98 797.24 316.69 795.22 313.05 Z" />
<path fill="#32b2e6" opacity="1.00" d=" M 705.96 383.69 C 703.88 366.25 711.42 348.69 723.14 336.06 C 714.80 347.02 706.55 359.71 707.07 374.05 C 707.13 379.01 706.81 384.01 707.58 388.93 C 708.84 395.20 712.08 400.85 715.96 405.87 C 709.82 400.21 707.25 391.70 705.96 383.69 Z" />
<path fill="#32b2e6" opacity="1.00" d=" M 1143.13 373.85 C 1146.37 371.51 1146.10 366.85 1148.88 364.07 C 1147.36 367.59 1144.70 371.01 1145.65 375.08 C 1145.27 377.06 1146.64 378.42 1148.57 378.43 C 1151.28 377.26 1154.08 376.30 1156.81 375.16 C 1152.85 377.22 1148.60 378.86 1144.12 379.22 C 1143.77 377.43 1143.41 375.64 1143.13 373.85 Z" />
<path fill="#32b2e6" opacity="1.00" d=" M 210.44 372.04 C 219.07 370.27 228.39 372.19 235.40 377.60 C 243.63 383.87 252.15 389.76 260.80 395.44 C 309.64 425.44 364.43 444.37 419.93 457.74 C 424.66 459.00 430.52 458.75 433.41 463.49 C 433.41 465.13 433.43 466.78 433.46 468.44 C 431.63 470.76 429.32 473.39 426.01 472.76 C 419.40 471.74 412.99 469.72 406.47 468.26 C 363.38 456.88 320.78 442.65 281.15 422.05 C 262.88 412.49 244.93 402.08 228.80 389.16 C 223.35 384.61 215.12 382.98 208.79 386.67 C 204.45 389.25 200.07 391.89 196.39 395.37 C 191.76 399.72 190.25 406.92 192.53 412.81 C 194.21 418.17 199.37 421.11 203.45 424.49 C 221.27 437.90 240.07 450.15 260.22 459.78 C 261.73 460.66 263.38 461.60 264.30 463.16 C 264.93 465.22 264.56 467.42 264.51 469.55 C 262.43 472.39 258.81 473.83 255.45 472.29 C 232.23 461.42 210.68 447.21 190.51 431.44 C 184.29 426.77 179.48 419.89 178.47 412.07 C 178.10 406.54 177.93 400.71 180.35 395.57 C 182.64 390.19 186.55 385.56 191.39 382.28 C 197.38 378.28 203.29 373.73 210.44 372.04 Z" />
<path fill="#32b2e6" opacity="1.00" d=" M 928.26 382.11 C 930.11 379.81 932.32 377.84 934.64 376.02 C 931.95 389.96 931.09 405.10 937.33 418.26 L 936.80 418.47 C 933.07 409.54 930.92 399.81 932.10 390.13 C 932.29 386.10 932.72 382.09 932.94 378.06 C 931.23 379.73 929.59 381.45 927.67 382.86 L 928.26 382.11 Z" />
<path fill="#32b2e6" opacity="1.00" d=" M 122.99 426.94 C 130.25 421.34 140.30 419.06 149.06 422.21 C 154.65 423.92 159.25 427.66 163.50 431.55 C 175.47 441.22 188.46 449.59 202.02 456.86 C 204.98 458.54 208.70 459.44 210.64 462.47 C 211.85 464.20 211.26 466.43 211.42 468.41 C 209.52 471.08 206.54 473.58 203.03 472.26 C 194.78 468.82 187.20 463.96 179.54 459.39 C 169.67 453.63 160.39 446.87 151.84 439.30 C 148.79 436.68 145.15 434.26 140.96 434.42 C 134.73 434.12 129.59 438.26 125.57 442.53 C 119.23 449.59 114.96 458.26 111.84 467.16 C 110.82 470.81 106.84 473.72 103.02 472.38 C 98.94 471.34 97.32 466.33 99.04 462.71 C 104.13 449.25 111.03 435.56 122.99 426.94 Z" />
</g>
<g id="#ffffffff">
<path fill="#ffffff" opacity="1.00" d=" M 1094.07 223.13 C 1098.29 221.99 1102.71 221.62 1107.08 221.84 C 1108.76 222.22 1110.47 222.47 1112.20 222.72 C 1118.93 224.40 1125.24 228.51 1128.28 234.92 C 1128.69 235.95 1129.08 236.98 1129.45 238.04 C 1130.94 245.36 1131.61 253.21 1128.61 260.28 C 1128.78 260.36 1129.12 260.53 1129.29 260.61 L 1129.61 260.76 C 1129.24 261.60 1128.50 263.27 1128.13 264.11 C 1127.36 266.05 1126.64 268.00 1125.77 269.90 C 1125.27 270.98 1124.78 272.07 1124.33 273.17 C 1123.17 275.07 1122.12 277.03 1121.23 279.06 C 1120.41 280.32 1119.59 281.58 1118.76 282.82 C 1117.77 284.49 1116.76 286.13 1115.70 287.74 C 1114.88 288.90 1114.07 290.05 1113.28 291.21 C 1110.09 295.67 1106.69 299.96 1103.22 304.19 C 1100.15 308.11 1096.45 311.46 1093.29 315.29 C 1092.42 316.10 1091.58 316.93 1090.74 317.75 C 1089.43 319.11 1088.09 320.44 1086.76 321.76 C 1083.11 325.09 1079.60 328.58 1075.81 331.74 C 1067.95 338.37 1059.68 344.58 1050.77 349.74 C 1049.18 350.56 1047.59 351.40 1046.05 352.30 C 1038.87 355.63 1030.69 359.62 1022.68 356.96 C 1015.05 353.89 1013.36 343.76 1017.27 337.19 C 1017.52 336.72 1018.02 335.77 1018.27 335.30 C 1023.14 327.07 1031.23 321.63 1038.08 315.21 C 1041.37 312.48 1044.47 309.53 1047.73 306.75 C 1051.61 303.31 1055.18 299.43 1059.68 296.78 C 1061.31 296.08 1063.19 296.54 1064.52 297.69 C 1064.47 299.01 1064.44 300.34 1064.42 301.67 C 1064.92 301.61 1065.92 301.49 1066.42 301.43 C 1074.02 294.35 1081.52 287.12 1088.25 279.20 C 1089.72 277.38 1091.26 275.62 1092.74 273.80 C 1093.74 272.49 1094.76 271.19 1095.77 269.87 C 1097.45 267.53 1099.09 265.15 1100.75 262.79 C 1101.01 262.33 1101.53 261.41 1101.78 260.95 C 1102.29 260.10 1102.81 259.26 1103.34 258.43 C 1103.79 257.55 1104.26 256.66 1104.74 255.79 C 1105.77 253.63 1106.60 251.38 1107.33 249.10 C 1107.37 247.64 1107.41 246.19 1107.48 244.74 C 1106.54 243.51 1105.84 241.56 1104.01 241.57 C 1099.49 240.98 1095.16 242.66 1090.88 243.80 C 1082.85 246.58 1075.33 250.64 1068.21 255.23 C 1063.22 258.47 1058.51 262.09 1053.79 265.70 C 1048.49 270.09 1043.26 274.55 1038.30 279.32 C 1037.19 280.21 1036.13 281.16 1035.11 282.14 C 1031.26 285.95 1027.29 289.65 1023.73 293.73 C 1023.43 293.99 1022.85 294.52 1022.56 294.78 L 1022.46 295.22 C 1016.59 301.13 1011.27 307.52 1005.72 313.70 C 1003.08 317.08 1000.30 320.35 997.74 323.79 C 996.93 324.96 996.11 326.12 995.34 327.31 C 994.78 328.11 994.23 328.92 993.69 329.73 C 992.26 331.70 990.99 333.79 989.76 335.89 C 988.90 337.40 988.05 338.91 987.27 340.47 L 986.69 340.65 C 986.24 341.90 985.76 343.13 985.33 344.39 L 984.72 344.61 C 984.29 346.19 983.59 347.67 982.53 348.92 C 982.54 349.29 982.57 350.02 982.58 350.38 L 981.71 350.61 C 981.03 352.83 980.10 354.97 979.22 357.12 C 978.22 359.29 977.50 361.57 976.68 363.81 C 976.10 365.65 975.57 367.51 975.28 369.43 L 974.60 369.53 C 974.53 371.34 974.43 373.18 973.79 374.90 C 973.52 376.25 973.22 377.60 972.77 378.91 C 972.39 386.38 971.92 394.07 974.66 401.20 C 975.35 402.61 976.03 404.05 976.68 405.49 C 980.33 411.66 986.96 415.54 993.96 416.60 C 1001.30 418.17 1008.81 416.64 1015.99 414.91 C 1023.16 412.79 1030.17 410.13 1036.89 406.84 C 1039.64 405.64 1042.29 404.22 1044.96 402.85 C 1046.25 402.17 1047.53 401.45 1048.81 400.71 C 1050.48 399.72 1052.18 398.77 1053.86 397.78 C 1055.55 396.77 1057.27 395.80 1058.98 394.81 C 1059.44 394.55 1060.37 394.04 1060.83 393.79 C 1076.05 384.29 1090.71 373.90 1104.78 362.75 C 1108.61 359.60 1112.53 356.55 1116.19 353.19 C 1117.01 352.79 1117.84 352.41 1118.69 352.04 C 1118.76 356.10 1119.11 360.37 1117.26 364.13 C 1117.02 364.62 1116.54 365.62 1116.30 366.11 C 1112.97 370.76 1108.78 374.67 1104.58 378.52 C 1095.84 387.16 1086.45 395.11 1076.83 402.75 C 1075.49 403.77 1074.15 404.78 1072.80 405.76 C 1071.22 406.89 1069.70 408.09 1068.18 409.28 C 1063.05 412.78 1057.97 416.35 1052.69 419.63 C 1050.42 421.07 1048.14 422.47 1045.76 423.70 C 1044.90 424.21 1044.05 424.74 1043.22 425.27 C 1040.40 426.75 1037.60 428.23 1034.79 429.71 C 1031.85 431.13 1028.92 432.56 1025.91 433.82 C 1024.24 434.49 1022.59 435.20 1020.96 435.92 C 1019.29 436.58 1017.60 437.19 1015.93 437.80 C 1012.66 439.02 1009.30 439.98 1005.95 440.93 C 994.36 444.13 981.95 445.52 970.14 442.80 C 967.76 442.22 965.38 441.64 963.03 440.98 C 960.99 440.06 958.96 439.13 956.91 438.27 C 949.40 434.47 943.33 428.34 938.66 421.41 C 938.20 420.36 937.75 419.31 937.33 418.26 C 931.09 405.10 931.95 389.96 934.64 376.02 C 932.32 377.84 930.11 379.81 928.26 382.11 C 916.98 392.81 904.48 402.29 891.11 410.25 C 888.75 411.55 886.37 412.83 883.91 413.90 C 878.15 416.63 869.71 417.10 865.65 411.31 C 865.19 410.46 864.73 409.62 864.26 408.81 C 862.58 404.41 863.45 399.48 863.69 394.90 C 864.09 393.90 864.45 392.89 864.78 391.87 C 865.63 388.73 866.89 385.72 867.74 382.58 L 868.28 382.53 C 868.71 380.87 869.26 379.25 869.73 377.60 L 870.60 377.36 C 870.56 377.01 870.49 376.31 870.45 375.95 L 871.25 375.08 C 871.40 374.32 871.69 372.79 871.84 372.03 C 869.03 373.22 866.87 375.41 864.51 377.25 C 851.92 387.17 839.96 398.05 826.13 406.26 C 825.61 406.55 824.57 407.11 824.05 407.40 C 821.60 408.56 818.72 409.33 816.13 408.16 C 810.27 405.25 805.87 400.14 802.21 394.85 C 800.99 392.98 799.90 391.03 798.77 389.12 C 798.24 387.70 797.69 386.30 797.18 384.89 C 796.98 384.25 796.58 382.97 796.37 382.33 C 796.02 382.42 795.32 382.60 794.96 382.69 C 791.82 385.99 788.12 388.69 784.75 391.74 C 783.22 392.92 781.70 394.10 780.14 395.22 C 778.73 396.22 777.38 397.27 776.04 398.34 C 773.45 400.03 770.77 401.56 768.18 403.24 C 763.92 405.79 759.39 407.85 754.84 409.82 C 751.33 411.19 747.70 412.27 743.99 412.95 C 739.06 414.25 733.88 413.76 728.87 413.34 C 724.14 411.74 719.31 409.72 715.96 405.87 C 712.08 400.85 708.84 395.20 707.58 388.93 C 706.81 384.01 707.13 379.01 707.07 374.05 C 706.55 359.71 714.80 347.02 723.14 336.06 C 731.28 326.58 741.50 318.94 752.85 313.72 C 754.52 313.12 756.19 312.47 757.84 311.76 C 761.46 310.51 765.18 309.59 768.92 308.77 C 774.94 307.78 781.04 307.62 787.05 308.76 C 788.07 309.14 789.10 309.48 790.15 309.81 C 791.96 310.68 793.73 311.67 795.22 313.05 C 797.24 316.69 797.15 320.98 796.79 325.00 C 796.46 329.89 793.39 333.92 790.90 337.94 C 784.20 346.18 775.22 352.12 766.00 357.19 C 764.28 358.06 762.54 358.90 760.81 359.74 C 758.57 360.89 756.26 361.92 753.94 362.89 C 753.42 363.12 752.40 363.59 751.89 363.82 C 746.59 365.94 741.31 368.20 735.80 369.72 C 734.65 370.36 733.11 370.77 733.23 372.41 L 732.62 372.56 C 732.64 375.08 732.64 377.61 732.66 380.14 C 733.17 381.37 733.66 382.62 734.16 383.87 C 735.96 386.55 738.80 388.20 741.76 389.32 C 743.51 389.45 745.26 389.65 746.94 390.25 C 748.97 390.42 751.02 390.42 753.07 390.27 C 758.47 388.90 763.93 387.47 768.88 384.80 C 769.94 384.29 771.01 383.78 772.10 383.28 C 779.06 379.39 785.40 374.53 791.89 369.91 C 794.57 367.87 797.64 366.08 799.29 363.01 C 799.74 361.87 800.23 360.74 800.72 359.62 L 801.23 359.41 C 801.80 358.29 802.49 357.23 803.24 356.21 C 804.57 354.49 805.91 352.78 807.43 351.22 L 807.53 350.75 C 807.83 350.49 808.43 349.97 808.73 349.71 C 816.38 341.55 825.61 335.03 835.12 329.21 C 839.35 326.75 843.60 324.30 848.05 322.24 C 851.71 320.47 855.38 318.67 859.20 317.25 C 861.82 316.14 864.48 315.11 867.18 314.20 C 868.43 313.74 869.73 313.31 871.02 312.88 C 872.01 312.58 873.01 312.25 874.01 311.91 C 878.00 310.87 881.96 309.64 886.08 309.16 C 893.94 307.00 903.47 307.26 909.30 313.75 C 910.28 315.11 911.21 316.52 912.10 317.96 C 912.39 319.36 912.58 320.78 912.67 322.22 C 911.67 323.06 910.70 323.91 909.72 324.75 C 907.83 325.79 905.99 326.90 904.11 327.94 C 906.41 329.14 908.38 330.89 909.86 333.04 C 910.29 334.36 910.77 335.68 911.40 336.94 C 911.41 339.07 910.90 341.20 909.66 342.96 C 909.62 343.25 909.54 343.83 909.50 344.13 C 907.89 346.33 906.36 348.59 904.76 350.79 C 902.57 353.58 900.35 356.35 898.26 359.21 C 897.06 360.71 895.85 362.21 894.76 363.78 C 894.09 364.79 893.39 365.79 892.71 366.79 C 892.23 367.61 891.75 368.43 891.28 369.25 C 888.70 373.25 887.22 378.32 888.96 382.94 C 892.08 386.41 896.95 385.68 901.11 385.38 C 901.24 385.15 901.52 384.70 901.65 384.47 C 911.38 381.89 918.96 374.73 927.14 369.21 C 929.46 367.65 931.49 365.38 934.42 365.07 C 934.60 366.93 935.14 368.72 936.06 370.37 C 936.19 369.66 936.45 368.22 936.58 367.51 L 937.26 367.42 C 937.53 365.22 938.20 363.10 939.29 361.17 C 940.03 358.96 941.02 356.84 941.77 354.63 L 942.63 354.41 C 942.61 354.05 942.57 353.32 942.56 352.95 C 942.85 352.42 943.43 351.36 943.72 350.83 C 944.21 349.92 944.73 349.03 945.27 348.15 C 946.04 346.68 946.84 345.22 947.63 343.75 C 948.22 342.85 948.83 341.96 949.45 341.08 C 949.49 340.80 949.56 340.23 949.59 339.95 C 950.34 338.91 951.07 337.84 951.71 336.72 C 951.97 336.26 952.49 335.32 952.75 334.85 C 954.33 332.76 955.73 330.55 957.25 328.42 C 958.08 327.14 958.92 325.87 959.73 324.58 C 960.56 323.46 961.40 322.34 962.25 321.23 C 964.49 318.19 966.89 315.27 969.28 312.34 C 984.69 293.52 1002.65 276.82 1022.15 262.28 C 1023.73 261.13 1025.29 259.93 1026.84 258.72 C 1035.62 252.41 1044.51 246.22 1053.84 240.75 C 1058.46 237.91 1063.22 235.32 1068.01 232.77 C 1071.41 231.30 1074.68 229.51 1078.16 228.19 C 1080.11 227.38 1082.10 226.65 1084.08 225.88 C 1087.36 224.82 1090.66 223.74 1094.07 223.13 M 762.04 327.20 C 753.19 331.89 745.92 339.12 740.22 347.28 C 739.99 347.82 739.52 348.89 739.28 349.43 L 738.71 349.54 C 738.06 351.03 737.34 352.49 736.48 353.87 C 736.41 354.83 736.35 355.80 736.32 356.78 C 738.62 356.03 740.89 355.17 743.13 354.24 C 744.02 353.74 744.92 353.25 745.82 352.75 C 753.75 348.81 760.90 343.40 767.14 337.13 C 768.97 335.15 770.69 333.07 772.52 331.08 C 772.51 330.71 772.49 329.97 772.47 329.60 L 773.39 329.43 C 773.66 328.83 774.21 327.63 774.48 327.03 C 774.02 325.87 773.57 324.72 773.13 323.57 C 769.13 323.53 765.52 325.48 762.04 327.20 M 876.03 337.91 C 872.32 339.19 868.65 340.57 864.94 341.84 C 853.97 346.13 842.99 350.69 833.09 357.17 C 828.82 360.10 824.52 363.18 821.26 367.26 C 819.30 369.56 817.96 372.27 816.53 374.91 C 816.52 375.19 816.51 375.77 816.50 376.05 C 814.61 378.99 815.65 382.80 815.55 386.11 C 815.89 386.62 816.57 387.63 816.92 388.13 C 817.41 388.44 818.41 389.07 818.91 389.39 C 821.32 389.33 823.68 388.72 825.97 387.96 C 827.03 387.40 828.11 386.85 829.20 386.32 C 829.69 386.06 830.66 385.53 831.15 385.27 C 837.23 381.44 842.80 376.89 848.26 372.25 C 857.55 364.25 866.36 355.72 875.13 347.15 C 876.75 345.43 878.41 343.75 880.14 342.14 C 881.75 340.40 883.44 338.75 885.14 337.10 C 885.61 336.17 886.27 335.38 887.11 334.73 C 883.33 335.50 879.70 336.80 876.03 337.91 Z" />
<path fill="#ffffff" opacity="1.00" d=" M 662.00 226.13 C 667.22 224.94 672.68 225.55 678.01 225.28 C 683.98 225.46 690.08 224.89 695.94 226.18 C 702.07 226.49 708.02 227.97 714.08 228.81 C 716.01 229.53 717.88 230.41 719.61 231.56 L 719.45 232.52 L 720.47 232.58 C 720.67 237.41 720.74 242.27 720.33 247.10 C 719.53 248.44 719.42 249.97 719.38 251.49 L 718.78 251.60 C 718.49 252.90 717.97 254.13 717.42 255.35 C 716.84 256.16 716.28 256.97 715.75 257.81 C 714.70 259.10 713.50 260.24 712.26 261.32 C 705.85 265.91 698.21 268.08 691.06 271.16 C 685.23 273.61 679.99 277.17 674.87 280.82 C 671.65 283.27 666.90 285.04 663.32 282.29 C 663.33 280.85 663.60 279.47 664.10 278.14 C 669.29 271.81 675.56 266.52 682.11 261.65 C 671.33 260.53 660.60 262.62 649.91 263.80 C 646.04 264.94 641.93 264.91 638.09 266.17 C 634.31 266.84 630.64 267.94 626.94 268.86 C 621.58 270.48 616.22 272.12 611.05 274.28 C 604.43 276.93 598.01 280.16 592.11 284.18 C 589.29 286.33 586.37 288.42 584.14 291.21 C 582.92 292.97 583.41 295.15 583.53 297.13 C 585.34 298.14 587.18 299.13 589.12 299.88 C 590.35 300.33 591.57 300.78 592.79 301.26 C 594.54 301.80 596.28 302.39 598.05 302.92 C 599.07 303.20 600.11 303.49 601.15 303.77 C 607.43 305.60 613.76 307.24 620.11 308.80 C 624.35 310.00 628.67 310.88 632.95 311.93 C 637.25 312.98 641.52 314.19 645.89 314.96 C 648.56 315.73 651.28 316.33 654.01 316.88 C 657.37 317.91 660.75 318.86 664.12 319.85 C 667.16 321.08 670.19 322.36 673.18 323.72 C 676.10 325.49 679.14 327.08 681.83 329.21 C 684.62 331.41 687.13 333.95 689.29 336.76 C 690.10 338.20 691.04 339.58 691.81 341.05 C 692.29 342.34 692.75 343.65 693.33 344.92 C 693.70 349.86 694.43 355.14 692.68 359.89 C 692.56 361.10 692.46 362.31 692.38 363.54 L 691.37 363.55 C 691.41 363.93 691.48 364.68 691.51 365.06 C 690.87 366.28 690.29 367.53 689.71 368.79 C 686.29 375.34 681.07 380.86 675.22 385.30 C 669.67 389.66 663.39 393.09 656.91 395.84 C 656.40 396.07 655.39 396.52 654.88 396.74 C 653.65 397.27 652.41 397.77 651.18 398.30 C 646.41 399.82 641.75 401.75 636.84 402.83 C 633.98 403.81 630.98 404.27 628.12 405.23 C 610.66 409.05 592.90 410.94 575.09 412.13 C 559.39 412.36 543.07 413.36 528.09 407.83 C 525.43 406.53 522.69 405.22 520.73 402.93 C 518.29 398.47 518.92 392.96 521.53 388.72 C 525.01 382.73 527.94 375.90 533.84 371.86 C 538.53 369.47 543.62 368.02 548.63 366.48 C 551.34 365.64 554.29 365.00 557.09 365.80 C 558.43 371.25 550.46 371.74 549.13 376.37 C 553.07 376.86 557.06 376.60 561.02 376.98 C 566.05 377.70 571.08 376.54 576.13 376.62 C 583.13 376.62 590.09 375.75 597.09 375.57 C 598.72 375.50 600.37 375.34 601.92 374.79 C 608.38 374.48 614.67 372.95 621.08 372.20 C 624.26 371.08 627.68 370.88 630.89 369.84 C 633.98 369.02 637.06 368.12 640.15 367.22 C 642.79 366.18 645.50 365.34 648.14 364.27 C 653.40 362.06 658.52 359.49 663.23 356.25 C 665.48 354.65 667.48 352.74 669.31 350.68 C 669.64 350.00 670.30 348.63 670.63 347.95 C 667.38 341.25 659.44 339.42 653.12 336.81 C 651.09 336.19 649.06 335.57 647.07 334.88 C 639.03 332.87 631.07 330.50 622.88 329.19 C 619.39 327.95 615.61 327.96 612.10 326.80 C 602.40 325.18 592.67 323.61 582.99 321.92 C 580.27 321.37 577.56 320.84 574.85 320.28 C 572.82 319.70 570.81 319.08 568.85 318.30 C 568.34 318.06 567.32 317.58 566.81 317.34 C 565.93 316.81 565.06 316.28 564.18 315.77 C 562.63 314.63 561.11 313.41 559.91 311.90 C 553.91 302.92 557.19 291.78 558.67 281.97 C 560.46 274.68 562.36 267.12 567.02 261.06 C 575.04 252.81 585.59 247.64 595.86 242.75 C 596.37 242.53 597.40 242.09 597.91 241.88 C 600.95 240.58 604.01 239.32 607.12 238.21 C 608.36 237.73 609.63 237.28 610.89 236.83 C 611.89 236.51 612.89 236.18 613.89 235.83 C 614.90 235.52 615.91 235.20 616.94 234.87 C 626.49 232.06 636.16 229.41 646.07 228.17 C 651.25 226.68 656.68 226.74 662.00 226.13 Z" />
<path fill="#ffffff" opacity="1.00" d=" M 1424.10 243.99 C 1426.09 243.05 1428.47 243.41 1430.22 244.74 C 1430.50 245.26 1431.05 246.29 1431.33 246.80 C 1432.67 250.04 1432.54 253.58 1432.16 257.01 C 1431.29 260.67 1431.12 264.47 1430.23 268.14 C 1429.55 269.70 1429.35 271.39 1429.18 273.07 C 1428.70 274.33 1428.27 275.61 1427.83 276.88 C 1427.48 277.88 1427.13 278.88 1426.80 279.89 C 1426.17 281.57 1425.47 283.22 1424.72 284.85 C 1424.13 286.23 1423.53 287.61 1422.82 288.92 C 1417.22 299.81 1410.02 309.78 1402.28 319.23 C 1390.94 332.88 1378.63 345.69 1365.84 357.99 C 1365.55 358.46 1364.98 359.39 1364.69 359.85 C 1362.04 367.11 1361.49 376.01 1366.27 382.53 C 1367.95 385.36 1370.82 387.32 1373.91 388.35 C 1377.93 389.16 1382.01 387.98 1385.87 386.84 C 1387.25 386.30 1388.67 385.77 1390.09 385.25 C 1391.66 384.37 1393.27 383.57 1394.89 382.77 C 1399.91 380.00 1404.62 376.72 1409.20 373.28 C 1413.16 370.24 1416.99 367.04 1420.75 363.75 C 1422.09 362.57 1422.48 360.72 1423.17 359.14 C 1423.92 357.01 1424.83 354.94 1425.72 352.86 C 1428.26 347.88 1431.25 343.13 1434.72 338.73 C 1446.87 323.81 1463.78 312.27 1482.90 308.74 C 1489.20 307.78 1495.68 307.45 1501.91 309.08 C 1506.04 310.19 1509.64 312.84 1511.35 316.84 C 1511.54 319.93 1511.51 323.03 1511.24 326.12 C 1510.52 327.77 1509.86 329.45 1509.25 331.15 C 1505.19 339.10 1498.35 345.15 1491.21 350.28 C 1483.91 355.28 1476.02 359.36 1467.92 362.87 C 1461.99 365.45 1455.96 367.80 1449.80 369.77 C 1449.22 370.00 1448.07 370.44 1447.49 370.67 C 1445.96 375.68 1445.73 382.21 1449.95 386.03 C 1452.61 388.68 1456.38 389.61 1460.02 389.90 C 1462.29 390.60 1464.70 390.46 1467.06 390.24 C 1472.47 388.89 1477.89 387.40 1482.86 384.78 C 1484.17 384.14 1485.49 383.48 1486.79 382.77 C 1494.49 378.40 1501.50 372.95 1508.64 367.74 C 1512.18 365.28 1515.08 361.77 1519.17 360.18 C 1519.66 363.25 1520.89 366.16 1521.31 369.25 C 1517.67 374.51 1512.91 378.90 1508.32 383.33 C 1497.46 393.20 1485.67 402.33 1472.18 408.32 C 1471.05 408.80 1469.94 409.29 1468.85 409.78 C 1465.32 411.17 1461.68 412.25 1457.96 412.93 C 1451.25 414.31 1443.87 414.37 1437.57 411.38 C 1432.33 408.98 1427.99 404.76 1425.27 399.71 C 1424.77 398.83 1424.28 397.95 1423.81 397.09 C 1423.42 396.12 1423.05 395.16 1422.68 394.22 C 1422.02 392.16 1421.41 390.09 1420.71 388.06 C 1420.38 385.69 1420.24 383.30 1420.15 380.92 C 1419.98 379.97 1419.66 378.08 1419.49 377.13 C 1408.52 388.80 1396.31 399.62 1382.17 407.29 C 1380.13 408.27 1378.02 409.10 1375.94 409.93 C 1369.08 412.26 1361.25 413.62 1354.47 410.32 C 1349.41 408.35 1345.95 403.92 1343.63 399.19 C 1343.06 397.48 1342.43 395.80 1341.70 394.16 C 1341.51 393.07 1341.34 391.97 1341.17 390.89 C 1340.50 388.66 1340.35 386.31 1339.84 384.05 C 1339.67 381.31 1339.66 378.55 1339.58 375.81 C 1327.75 386.79 1315.26 397.44 1300.75 404.73 C 1296.95 406.75 1293.02 408.52 1288.94 409.88 C 1281.61 411.96 1273.58 413.65 1266.21 410.86 C 1260.23 409.06 1255.35 404.91 1251.59 400.05 C 1251.53 399.77 1251.43 399.23 1251.37 398.96 C 1250.59 397.90 1249.88 396.83 1249.21 395.74 C 1248.48 394.14 1247.80 392.52 1247.21 390.88 C 1244.75 384.81 1244.65 378.24 1244.11 371.83 C 1243.97 372.25 1243.70 373.10 1243.57 373.53 L 1242.78 373.52 C 1239.65 377.46 1235.96 380.88 1232.70 384.70 C 1212.24 407.24 1191.75 429.75 1171.23 452.23 C 1166.74 457.18 1163.09 463.07 1157.20 466.53 C 1152.02 466.91 1150.10 460.94 1149.17 456.87 C 1147.94 452.76 1147.68 448.14 1149.12 444.06 C 1149.90 442.24 1150.71 440.43 1151.67 438.69 C 1152.42 437.47 1153.10 436.20 1153.78 434.92 C 1154.97 433.04 1156.09 431.12 1157.27 429.23 C 1157.73 428.38 1158.21 427.53 1158.69 426.68 C 1159.73 425.04 1160.73 423.37 1161.70 421.69 C 1162.56 420.22 1163.43 418.76 1164.33 417.32 C 1164.78 416.47 1165.24 415.63 1165.72 414.80 C 1166.24 413.95 1166.76 413.11 1167.30 412.28 C 1167.90 411.20 1168.54 410.14 1169.22 409.10 C 1170.15 407.38 1171.11 405.69 1172.20 404.07 C 1173.01 402.61 1173.85 401.16 1174.72 399.74 C 1175.58 398.32 1176.41 396.89 1177.25 395.45 C 1177.87 394.34 1178.54 393.25 1179.25 392.17 C 1180.20 390.47 1181.17 388.77 1182.22 387.12 C 1183.04 385.70 1183.86 384.27 1184.69 382.85 C 1185.21 382.01 1185.73 381.17 1186.27 380.33 C 1187.30 378.00 1189.42 376.10 1189.54 373.44 C 1190.02 373.35 1190.98 373.15 1191.46 373.06 C 1190.49 372.92 1189.53 372.79 1188.59 372.66 C 1188.55 373.02 1188.45 373.75 1188.41 374.11 C 1185.81 375.00 1184.02 377.19 1181.89 378.80 C 1178.39 381.68 1174.84 384.48 1171.28 387.28 C 1163.07 393.27 1155.35 400.39 1145.87 404.30 C 1139.53 403.55 1134.94 398.61 1131.23 393.85 C 1130.70 392.99 1130.18 392.14 1129.67 391.30 C 1128.77 389.53 1127.96 387.73 1127.16 385.93 C 1126.70 384.64 1126.39 383.32 1126.11 382.00 C 1125.59 380.38 1125.19 378.72 1124.76 377.08 C 1124.43 372.01 1124.46 366.88 1125.81 361.95 C 1126.12 360.92 1126.43 359.89 1126.75 358.86 C 1127.46 357.21 1128.06 355.52 1128.65 353.83 C 1129.71 351.86 1130.67 349.84 1131.72 347.85 C 1132.41 346.80 1133.06 345.72 1133.69 344.64 C 1144.32 329.15 1158.15 315.41 1174.88 306.60 C 1178.92 305.65 1182.01 308.80 1184.49 311.50 C 1186.55 313.90 1188.52 316.76 1188.40 320.08 C 1187.80 321.31 1187.29 322.57 1186.74 323.81 C 1182.23 331.94 1175.54 338.51 1169.25 345.24 C 1162.67 351.74 1155.91 358.07 1148.88 364.07 C 1146.10 366.85 1146.37 371.51 1143.13 373.85 C 1143.41 375.64 1143.77 377.43 1144.12 379.22 C 1148.60 378.86 1152.85 377.22 1156.81 375.16 C 1157.94 374.55 1159.08 373.93 1160.22 373.32 C 1160.68 373.04 1161.59 372.48 1162.04 372.20 C 1163.44 371.25 1164.83 370.27 1166.21 369.27 C 1167.70 368.08 1169.21 366.89 1170.77 365.77 C 1173.04 364.08 1175.02 362.03 1177.26 360.29 C 1186.72 351.76 1195.99 343.03 1205.11 334.14 C 1213.14 326.99 1220.42 318.97 1229.09 312.58 C 1230.74 311.04 1233.02 311.21 1235.10 311.50 C 1236.12 312.96 1237.10 314.48 1237.86 316.11 C 1240.40 321.82 1239.90 328.52 1236.71 333.87 C 1236.21 334.95 1235.72 336.04 1235.26 337.13 C 1231.43 343.82 1227.08 350.18 1222.75 356.54 C 1219.23 361.75 1215.67 366.93 1212.26 372.21 C 1211.41 373.38 1210.57 374.56 1209.75 375.75 C 1207.33 379.62 1204.62 383.28 1202.20 387.14 C 1198.85 392.19 1195.11 397.05 1192.20 402.34 L 1191.62 402.46 C 1191.44 402.99 1191.09 404.03 1190.91 404.55 C 1190.42 405.41 1189.94 406.27 1189.48 407.14 C 1190.26 406.35 1191.01 405.53 1191.78 404.72 C 1197.26 401.09 1201.66 396.11 1206.78 392.00 C 1214.91 384.78 1222.98 377.50 1231.20 370.37 C 1236.12 365.85 1241.20 361.50 1246.20 357.06 C 1246.98 354.98 1247.82 352.93 1248.72 350.90 C 1254.32 340.76 1263.96 333.83 1273.19 327.24 C 1275.99 325.29 1278.88 323.47 1281.81 321.69 C 1283.20 320.89 1284.62 320.09 1286.04 319.29 C 1289.59 317.35 1293.19 315.50 1296.83 313.73 C 1303.31 310.82 1310.00 308.42 1316.91 306.75 C 1320.29 306.34 1323.71 306.35 1327.12 306.64 C 1330.42 308.04 1332.98 310.57 1334.28 313.93 C 1334.39 317.23 1334.97 320.68 1333.79 323.87 C 1333.12 325.54 1332.45 327.22 1331.74 328.87 C 1326.87 338.46 1319.38 346.75 1310.21 352.38 C 1308.26 353.29 1306.04 353.86 1303.94 353.22 C 1301.52 352.36 1300.07 350.14 1298.60 348.20 C 1298.14 346.53 1297.67 344.87 1297.33 343.18 C 1293.13 343.28 1290.62 347.36 1287.18 349.25 C 1285.81 350.22 1284.48 351.24 1283.18 352.27 C 1282.01 353.09 1280.86 353.92 1279.72 354.74 C 1275.29 358.30 1270.29 361.25 1266.65 365.69 C 1265.02 368.57 1263.59 371.69 1263.57 375.07 C 1264.79 380.04 1268.18 384.17 1272.80 386.37 C 1274.51 387.00 1276.25 387.55 1278.04 388.00 C 1281.94 388.87 1286.04 388.85 1289.94 387.94 C 1294.02 387.45 1297.99 386.25 1301.81 384.75 C 1302.92 384.26 1304.05 383.78 1305.21 383.33 C 1307.24 382.37 1309.25 381.34 1311.26 380.30 C 1319.42 375.64 1327.23 370.34 1334.77 364.74 C 1336.11 363.75 1337.45 362.75 1338.82 361.79 C 1341.17 360.68 1341.76 358.34 1341.85 355.94 C 1342.89 353.06 1343.17 349.97 1344.13 347.07 C 1344.44 345.75 1344.78 344.43 1345.18 343.13 C 1345.84 341.13 1346.52 339.14 1347.25 337.16 C 1347.75 335.42 1348.37 333.72 1349.16 332.09 C 1350.10 330.04 1350.96 327.95 1351.76 325.84 C 1352.53 324.24 1353.33 322.65 1354.17 321.08 C 1355.06 319.38 1355.93 317.66 1356.76 315.93 C 1358.55 312.98 1360.38 310.07 1362.22 307.15 C 1368.15 298.26 1375.27 290.28 1382.15 282.14 C 1389.60 273.91 1396.97 265.59 1405.15 258.07 C 1411.14 252.99 1416.78 247.19 1424.10 243.99 M 1401.83 282.84 C 1398.57 286.30 1395.53 289.94 1392.78 293.81 C 1388.55 299.69 1384.75 305.87 1381.31 312.24 C 1380.78 313.13 1380.26 314.03 1379.75 314.93 C 1377.94 318.68 1375.77 322.25 1374.14 326.09 C 1373.41 327.38 1372.79 328.72 1372.22 330.08 C 1371.85 331.04 1371.55 332.02 1371.31 333.01 C 1380.45 325.92 1387.37 316.38 1394.24 307.17 C 1395.04 305.99 1395.88 304.84 1396.71 303.67 C 1397.23 302.86 1397.76 302.05 1398.31 301.24 C 1401.48 296.30 1404.54 291.26 1407.10 285.96 C 1408.35 282.74 1410.95 279.70 1410.50 276.07 C 1407.18 277.75 1404.51 280.33 1401.83 282.84 M 1480.90 324.87 C 1479.51 325.48 1478.15 326.12 1476.80 326.74 C 1473.75 328.30 1470.86 330.13 1468.16 332.22 C 1462.60 336.68 1457.65 341.92 1453.79 347.93 C 1452.20 350.71 1449.91 353.40 1450.20 356.82 C 1464.66 351.70 1477.95 342.42 1486.93 329.90 C 1488.59 327.39 1488.15 322.26 1484.02 323.70 C 1482.97 324.11 1481.93 324.50 1480.90 324.87 Z" />
</g>
</svg>
